<svg version="1.2" xmlns="http://www.w3.org/2000/svg" viewBox="0 0 112 63" width="112" height="63"><defs><clipPath clipPathUnits="userSpaceOnUse" id="cp1"><path d="m-913-354h1728v864h-1728z"/></clipPath></defs><style>.a{fill:#ffd14f}.b{fill:#2c2e35}</style><g clip-path="url(#cp1)"><path class="a" d="m31.5 10.3q0.8 0 1.6 0.1v7.1q-0.8-0.1-1.6-0.1c-7.9 0-14.3 6.4-14.3 14.3 0 8 6.4 14.4 14.3 14.4 5.9 0 11-3.6 13.2-8.8h-13.8v-7h2.2 12.6 7.1v0.1q0 0.7 0 1.3 0 2.9-0.7 5.6c-2.4 9.1-10.7 15.9-20.6 15.9-11.8 0-21.3-9.6-21.3-21.5 0-11.8 9.5-21.4 21.3-21.4zm-0.6-10.2h2.2v30.2h30.1v2.3h-30.1v30.3h-2.2v-30.3h-30.1v-2.3h30.1z"/><path fill-rule="evenodd" class="b" d="m47.2 21.6q0 1.5-0.4 2.4-0.3 0.6-0.9 0.9-0.2 0.3-2.8 0.5-2 0.1-3.1 0.1-1.5 0-2.3-0.2-2.1-0.4-2.8-2.2-0.3-0.9-0.3-2.3v-4.2q0-4.6 4.6-4.6h3.8q1.7 0 2.8 0.6 1.3 0.8 1.3 2.5v1.2h-2.3v-0.8q0-0.9-0.3-1.3-0.5-0.4-2-0.4c-0.1 0-2.1 0-2.3 0q-0.2 0-0.3 0-0.8 0-1 0-0.8 0.1-1.3 0.4-0.6 0.5-0.6 2.4v4.6q0 1.6 0.9 2.2 0.7 0.4 2.2 0.4 0.1 0 0.4-0.1 0.2 0 0.3 0h0.6q0.2 0 0.5 0.1 1.9 0 2.5-0.5 0.5-0.3 0.5-1.7v-1.3h-4.6v-1.8h6.9zm8.8-2.1h-2.1v-1.1q0-0.4-0.2-0.6-0.2-0.4-1.2-0.4-1 0-1.5 0.4-0.6 0.5-0.6 1.8v5.8h-2.2v-9.5h2.2v0.5q0.8-0.5 2.4-0.6 2 0 2.7 1 0.5 0.8 0.5 2.2zm-5.6-3.1q-0.4 0.2-0.6 0.6h0.5zm8.7-2.3h-2.2v-2h2.2zm0 11.3h-2.2v-9.5h2.2zm11.3-4.4q0 2.6-1.1 3.6-0.9 0.9-3.3 0.9-1.9 0-2.8-0.5v4.3h-2.2v-13.3h2.2v0.4q0.1-0.1 0.3-0.1 1.1-0.4 2.4-0.4 2.5 0 3.4 0.9 0.7 0.7 1 2 0.1 0.7 0.1 2.2zm-7.2 4v-0.6h-0.6q0.2 0.3 0.6 0.6zm0-8.6q-0.2 0.1-0.2 0.1l0.2 0.7zm4.9 4.5v-0.4q0-1 0-1.4-0.1-0.8-0.4-1.1-0.4-0.3-1.1-0.4-0.3-0.1-0.8-0.1-0.8 0-1.1 0.1-1.2 0.2-1.4 1.4-0.1 0.6-0.1 1.2v0.6q0 0.9 0.1 1.3 0.1 0.8 0.3 1.2 0.6 0.7 2.1 0.7 0.8 0 1.1-0.1 1.1-0.2 1.3-1.6 0-0.4 0-1.4zm10.5 4.6l-4.3-4.3h-0.1v4.3h-2.2v-13.3h2.2v7.4h0.1l3.6-3.6h2.7l-4.5 4.4 5.2 4.9v-9.3h2.2v9.5zm4.9-11.3h-2.2v-2h2.2zm11.1 11.3h-2.2v-6.3q0-1.1-0.6-1.5-0.4-0.2-1.5-0.2-0.8 0-1.1 0.1-0.6 0-1 0.4-0.6 0.5-0.6 1.9v5.6h-2.2v-9.5h2.2v0.5q0.8-0.6 2.7-0.6 2 0 2.9 0.5 1.4 0.7 1.4 2.7zm-7-8.9q-0.4 0.2-0.5 0.6h0.5zm18 9.6q0 1.7-1.1 2.5-1.1 0.8-3.7 0.8-1.1 0-1.7-0.1-1.1-0.2-1.7-0.6-0.4-0.3-0.7-1-0.2-0.6-0.2-1.2 0-0.2 0-0.5h2.2q0 0.9 0.2 1.3 0.3 0.4 1.1 0.5 0.7 0 1 0h0.2q1.3 0 1.7-0.3 0.6-0.5 0.6-1.5l-0.1-1.1q-0.8 0.6-2.9 0.6-2.3 0-3.3-1-1-1.1-1-3.7 0-3.1 1.1-4 1.1-0.9 3.3-0.9 1.5 0 2.3 0.3 0.3 0.1 0.5 0.3v-0.5h2.2zm-2.2-9.6v0.8l0.7-0.1q-0.3-0.5-0.7-0.7zm0 4.5v-0.7q0-1.4-0.2-1.9-0.2-0.7-1-0.9-0.4-0.1-1.4-0.1-1.4 0-1.9 0.5-0.3 0.3-0.4 1.1 0 0.2 0 1.2v0.3q0 0.4-0.1 0.8 0 1.4 0.5 2 0.3 0.4 0.9 0.4 0.3 0.1 1.1 0.2 0.5 0 1.1-0.2 1.2-0.2 1.4-1.4 0-0.4 0-1.3zm6.1-9.9c0.7 0 1.3 0.3 1.8 0.8 0.4 0.4 0.7 1.1 0.7 1.7 0 0.7-0.3 1.4-0.7 1.8-0.5 0.5-1.1 0.7-1.8 0.7-0.6 0-1.3-0.2-1.7-0.7-0.5-0.4-0.7-1.1-0.7-1.8 0-0.6 0.2-1.3 0.7-1.7 0.4-0.5 1.1-0.8 1.7-0.8zm1.5 1.1c-0.4-0.4-0.9-0.6-1.5-0.6-0.5 0-1 0.2-1.4 0.6-0.4 0.4-0.6 0.9-0.6 1.4 0 0.6 0.2 1.1 0.6 1.5 0.4 0.3 0.9 0.6 1.4 0.6 0.6 0 1.1-0.3 1.5-0.6 0.3-0.4 0.6-0.9 0.6-1.5 0-0.5-0.3-1-0.6-1.4zm-0.3 0.6l-0.3 0.3q-0.3-0.3-0.8-0.3-0.3 0-0.6 0.2-0.2 0.3-0.2 0.6 0 0.3 0.1 0.5 0.1 0.2 0.3 0.3 0.2 0.1 0.4 0.1 0.2 0 0.4-0.1 0.2 0 0.4-0.3l0.3 0.4q-0.3 0.3-0.5 0.4-0.3 0.1-0.6 0.1-0.6 0-0.9-0.4-0.4-0.4-0.4-1 0-0.3 0.2-0.6 0.1-0.3 0.4-0.5 0.4-0.2 0.7-0.2 0.3 0 0.6 0.1 0.3 0.2 0.5 0.4zm-51.6 22.9h-3.3v1.4h3q0.6 0 0.8 0.2 0.3 0.3 0.3 0.9v0.6q0 0.6-0.3 0.9-0.2 0.2-0.8 0.2h-2.8q-0.7 0-0.9-0.2-0.2-0.3-0.2-0.9v-0.2l0.7-0.2v0.8h3.6v-1.4h-3q-0.7 0-0.9-0.3-0.3-0.2-0.3-0.9v-0.4q0-0.6 0.3-0.9 0.2-0.2 0.9-0.2h2.5q0.6 0 0.9 0.2 0.2 0.3 0.2 0.8v0.1l-0.7 0.2zm3.1 0.2q0.1 0.2 0.1 0.3 0 0.2 0 0.4v3.3h-0.7v-4.8h0.7l2.3 3.1 2.1-3.1h0.8v4.8h-0.8v-3.3q0 0 0.1-0.3 0-0.2 0-0.4-0.1 0.2-0.2 0.4-0.1 0.1-0.1 0.2l-1.8 2.6h-0.2l-1.9-2.6q0 0-0.1 0-0.2-0.3-0.3-0.6zm6.1 4l2.6-4.8h0.9l2.7 4.8h-0.9l-0.6-1.2h-3.3l-0.6 1.2zm1.8-1.8h2.5l-1.3-2.5zm5.3 1.8v-4.8h3.8q0.6 0 0.8 0.2 0.2 0.3 0.2 0.8v1q0 0.5-0.2 0.7-0.2 0.3-0.8 0.3h-0.7l2.2 1.8h-1.2l-1.9-1.8h-1.4v1.8zm3.5-4.2h-2.7v1.7h2.7q0.3 0 0.4-0.1 0.1-0.1 0.1-0.4v-0.7q0-0.2-0.1-0.3-0.1-0.2-0.4-0.2zm4.7 0.1v4.1h-0.8v-4.1h-2.2v-0.7h5.2v0.7zm6 4.1l-1.7-4.8h0.8l1.3 3.8 1.4-3.8h0.5l1.4 3.8 1.3-3.8h0.7l-1.7 4.8h-0.6l-1.4-3.6-1.3 3.6zm5.2 0l2.6-4.8h0.9l2.7 4.8h-0.9l-0.6-1.2h-3.3l-0.6 1.2zm1.8-1.8h2.5l-1.3-2.4zm5.9 1.8v-2.1l-2.4-2.7h1l1.8 2.1 1.8-2.1h1l-2.4 2.7v2.1zm-25.1 3.2v3.3h-0.7v-3.3h-1.7v-0.5h4.1v0.5zm2.3 0.4q0-0.5 0.1-0.7 0.2-0.2 0.8-0.2h2.6q0.5 0 0.7 0.2 0.2 0.2 0.2 0.7v2q0 0.5-0.2 0.7-0.2 0.2-0.7 0.2h-2.6q-0.6 0-0.8-0.2-0.1-0.2-0.1-0.7zm0.6 2.4h3.2v-2.8h-3.2zm7.1 0.6v-3.9h3.1q0.4 0 0.6 0.2 0.2 0.2 0.2 0.6v0.8q0 0.4-0.2 0.6-0.2 0.2-0.6 0.2h-2.5v1.5zm2.9-3.4h-2.2v1.4h2.2q0.2 0 0.3-0.1 0.1-0.1 0.1-0.3v-0.6q0-0.2-0.1-0.3-0.1-0.1-0.3-0.1zm0.7 3.4l2-3.9h0.7l2.2 3.9h-0.8l-0.4-1h-2.6l-0.5 1zm1.4-1.5h2l-1-1.9zm7.4-1.9h-2.6v2.8h2.6v-1l0.7 0.1v0.5q0 0.5-0.2 0.7-0.2 0.2-0.7 0.2h-2.2q-0.5 0-0.7-0.2-0.2-0.2-0.2-0.7v-2q0-0.6 0.2-0.8 0.2-0.2 0.7-0.2h2.2q0.5 0 0.7 0.2 0.2 0.2 0.2 0.8v0.3l-0.7 0.1zm1.8 3.4v-3.9h0.6v1.7l2.4-1.7h0.9l-2.7 1.9 3 2h-1l-2.6-1.8v1.8zm-51.4 6.5v-1.7l-2-2.1h0.8l1.5 1.7 1.4-1.7h0.8l-1.9 2.1v1.7zm2.9-2.9q0-0.5 0.2-0.7 0.2-0.2 0.7-0.2h2.6q0.6 0 0.8 0.2 0.1 0.2 0.1 0.7v2q0 0.5-0.1 0.7-0.2 0.2-0.8 0.2h-2.6q-0.5 0-0.7-0.2-0.2-0.2-0.2-0.7zm0.6 2.4h3.2v-2.8h-3.2zm5.9-3.3v3.3h2.7v-3.3h0.7v2.9q0 0.6-0.2 0.8-0.2 0.2-0.7 0.2h-2.3q-0.5 0-0.7-0.2-0.2-0.2-0.2-0.8v-2.9zm4.9 3.9v-3.9h3.1q0.4 0 0.6 0.2 0.2 0.2 0.2 0.6v0.8q0 0.4-0.2 0.6-0.2 0.2-0.6 0.2h-0.6l1.7 1.5h-0.9l-1.6-1.5h-1.1v1.5zm2.8-3.4h-2.1v1.4h2.1q0.3 0 0.4-0.1 0.1-0.1 0.1-0.3v-0.6q0-0.2-0.1-0.3-0.1-0.1-0.4-0.1zm7.5 0h-2.7v1.1h2.4q0.5 0 0.7 0.2 0.2 0.2 0.2 0.7v0.4q0 0.6-0.2 0.8-0.2 0.2-0.7 0.2h-2.2q-0.5 0-0.7-0.2-0.2-0.2-0.2-0.8v-0.1l0.6-0.1v0.6h2.8v-1.1h-2.4q-0.5 0-0.7-0.2-0.2-0.2-0.2-0.7v-0.4q0-0.5 0.2-0.7 0.2-0.2 0.7-0.2h2.1q0.5 0 0.7 0.2 0.2 0.2 0.2 0.7l-0.6 0.2zm2.6-0.5v3.3h2.8v-3.3h0.6v2.9q0 0.5-0.2 0.7-0.1 0.2-0.7 0.2h-2.2q-0.5 0-0.7-0.2-0.2-0.2-0.2-0.7v-2.9zm8.1 0.5h-2.7v2.8h2.7v-1l0.6 0.2v0.4q0 0.5-0.2 0.7-0.2 0.2-0.7 0.2h-2.1q-0.5 0-0.7-0.2-0.2-0.2-0.2-0.7v-2q0-0.5 0.2-0.7 0.2-0.2 0.7-0.2h2.1q0.5 0 0.7 0.2 0.2 0.2 0.2 0.7v0.3l-0.6 0.2zm5 0h-2.7v2.8h2.7v-1l0.6 0.1v0.5q0 0.5-0.2 0.7-0.2 0.2-0.7 0.2h-2.1q-0.5 0-0.7-0.2-0.2-0.2-0.2-0.7v-2q0-0.6 0.2-0.8 0.2-0.2 0.7-0.2h2.1q0.5 0 0.7 0.2 0.2 0.2 0.2 0.8v0.3l-0.6 0.1zm1.7 3.4v-3.9h3.7v0.5h-3v1.1h1.8v0.5h-1.8v1.2h3v0.6zm8-3.4h-2.7v1.1h2.4q0.5 0 0.7 0.2 0.2 0.2 0.2 0.7v0.5q0 0.5-0.2 0.7-0.2 0.2-0.7 0.2h-2.3q-0.5 0-0.7-0.2-0.1-0.2-0.1-0.7v-0.2l0.5-0.1v0.6h2.9v-1.1h-2.4q-0.5 0-0.7-0.2-0.2-0.2-0.2-0.7v-0.4q0-0.5 0.2-0.7 0.2-0.2 0.7-0.2h2q0.5 0 0.7 0.2 0.2 0.2 0.2 0.7l-0.5 0.2zm5.2 0h-2.7v1.1h2.4q0.5 0 0.7 0.2 0.2 0.2 0.2 0.7v0.4q0 0.5-0.2 0.7-0.2 0.2-0.7 0.2h-2.2q-0.5 0-0.7-0.2-0.2-0.2-0.2-0.7v-0.1l0.6-0.1v0.6h2.8v-1.2h-2.4q-0.5 0-0.7-0.2-0.2-0.2-0.2-0.7v-0.3q0-0.5 0.2-0.7 0.2-0.2 0.7-0.2h2.1q0.5 0 0.7 0.2 0.2 0.2 0.2 0.6v0.1l-0.6 0.2z"/></g></svg>