<?xml version="1.0" standalone="no"?>
<!DOCTYPE svg PUBLIC "-//W3C//DTD SVG 20010904//EN"
 "http://www.w3.org/TR/2001/REC-SVG-20010904/DTD/svg10.dtd">
<svg version="1.0" xmlns="http://www.w3.org/2000/svg"
 width="2256.000000pt" height="2536.000000pt" viewBox="0 0 2256.000000 2536.000000"
 preserveAspectRatio="xMidYMid meet">

<g transform="translate(0.000000,2536.000000) scale(0.100000,-0.100000)"
fill="#000000" stroke="none">
<path d="M5375 25333 c-23 -6 -220 -101 -285 -138 -57 -32 -80 -32 -207 6 -75
22 -108 28 -116 20 -18 -18 6 -55 58 -89 l47 -31 -44 -22 c-59 -31 -171 -36
-315 -15 -102 16 -115 16 -150 1 -48 -20 -88 -59 -169 -162 -83 -106 -120
-137 -193 -163 -70 -26 -85 -40 -106 -100 -36 -103 -29 -194 19 -239 42 -39
93 -44 227 -20 67 11 123 18 126 16 2 -3 0 -14 -6 -25 -17 -31 -13 -102 8
-148 33 -72 76 -98 245 -144 88 -24 159 -50 171 -61 18 -17 18 -22 6 -61 -23
-75 -24 -120 -3 -158 26 -49 71 -76 134 -83 30 -3 72 -15 95 -26 62 -33 127
-37 198 -12 75 27 104 21 150 -30 42 -47 58 -84 50 -117 -7 -30 34 -70 117
-111 79 -40 142 -41 202 -6 l42 25 40 -21 c21 -12 54 -32 72 -46 32 -24 33
-27 27 -74 -8 -54 -9 -52 100 -146 41 -36 40 -19 20 -188 -12 -98 53 -167 153
-163 48 2 57 -1 77 -24 16 -18 26 -47 31 -85 9 -76 35 -103 101 -103 26 0 55
-6 64 -13 20 -15 159 -223 159 -237 0 -6 -10 -24 -22 -41 -35 -46 -17 -66 84
-94 80 -22 154 -83 196 -164 17 -34 32 -75 32 -90 0 -22 21 -45 116 -127 259
-220 277 -234 305 -234 15 0 65 18 111 40 103 50 169 61 200 34 31 -28 132
-166 164 -224 15 -28 33 -50 41 -50 8 0 44 16 80 35 72 38 107 43 141 19 33
-23 28 -62 -14 -105 -47 -49 -41 -69 20 -69 41 0 47 3 61 31 18 34 138 116
183 125 59 12 91 -26 112 -134 16 -81 44 -112 100 -112 58 0 94 18 238 116
225 154 238 170 192 233 -10 15 -29 53 -40 85 -16 40 -30 60 -50 71 -54 28
-62 71 -34 195 15 66 15 75 1 105 -20 42 -54 50 -127 30 -90 -24 -117 -20
-160 23 -38 38 -60 102 -60 175 0 38 4 44 53 80 45 34 47 58 12 151 -32 84
-31 110 1 143 26 25 27 26 134 19 105 -7 108 -6 138 19 66 55 126 272 92 334
-18 34 0 45 83 49 94 5 107 17 107 93 0 50 3 60 26 78 15 12 41 21 59 21 40 0
80 30 105 81 11 21 48 152 81 291 85 352 83 397 -20 472 -30 21 -59 53 -72 78
-12 24 -27 46 -33 50 -6 4 -45 8 -87 8 -107 0 -186 27 -292 100 -70 48 -96 60
-127 60 -56 0 -68 -8 -95 -60 -33 -65 -68 -80 -185 -80 -126 0 -210 -22 -342
-88 -100 -51 -118 -63 -157 -116 l-44 -58 -46 5 c-25 3 -55 7 -66 9 -16 2 -22
-5 -29 -40 -8 -32 -14 -41 -25 -37 -9 4 -42 13 -73 22 -54 15 -63 15 -118 0
-121 -34 -156 -17 -189 93 -26 86 -44 99 -148 111 -99 11 -163 42 -252 125
-56 52 -71 72 -71 94 0 16 5 32 10 35 15 9 12 62 -5 94 -8 16 -41 52 -75 81
-63 55 -90 94 -90 130 0 35 -50 74 -130 105 -178 67 -378 187 -496 297 -66 62
-77 84 -89 178 -7 50 -19 71 -52 89 -19 10 -39 4 -142 -39 -65 -27 -127 -50
-137 -50 -9 0 -34 17 -54 39 -20 21 -46 44 -58 50 -21 11 -79 13 -117 4z"/>
<path d="M5115 23663 c-29 -10 -60 -13 -111 -9 l-71 6 -22 -59 c-27 -75 -86
-141 -167 -189 -46 -26 -73 -52 -96 -87 -26 -39 -47 -57 -95 -81 -137 -67
-132 -35 -93 -661 20 -331 37 -527 47 -563 17 -64 83 -134 228 -243 148 -111
246 -154 394 -172 110 -13 142 -53 122 -152 -6 -31 -11 -65 -11 -75 0 -28 36
-58 70 -58 96 0 315 -71 386 -125 33 -26 35 -26 116 -15 45 6 98 20 117 30 45
22 176 140 221 198 31 40 32 46 20 65 -8 12 -26 47 -41 77 -15 30 -36 61 -48
68 -25 14 -28 50 -5 59 8 3 33 0 55 -6 63 -19 105 -1 200 84 100 90 142 108
310 130 153 20 163 25 154 73 -21 111 -110 203 -231 237 -32 10 -67 24 -76 33
-22 18 -23 52 -3 78 8 10 15 26 15 34 0 17 -125 209 -149 227 -9 7 -39 13 -68
13 -43 0 -55 4 -72 26 -11 14 -23 46 -27 72 -8 58 -21 94 -37 104 -7 4 -37 8
-67 8 -126 0 -189 102 -149 243 17 62 4 93 -57 138 -68 50 -90 90 -74 129 7
16 9 34 5 40 -9 14 -113 80 -127 80 -6 0 -27 -10 -47 -22 -73 -46 -170 -25
-288 61 -40 29 -43 34 -43 80 0 42 -5 54 -41 95 -46 52 -71 57 -144 29z"/>
<path d="M6725 21885 c-33 -6 -97 -17 -143 -23 -110 -15 -152 -36 -245 -120
-86 -78 -128 -97 -193 -88 -48 6 -64 -6 -41 -32 8 -9 27 -43 42 -74 15 -31 33
-62 40 -68 17 -14 10 -35 -27 -83 l-29 -37 20 -27 c28 -35 28 -101 0 -137 -11
-15 -54 -45 -95 -67 -140 -77 -163 -156 -57 -194 144 -50 154 -65 168 -247 6
-67 12 -86 51 -150 24 -40 53 -101 65 -135 23 -69 64 -113 106 -113 15 0 39
14 61 36 44 44 68 40 128 -19 51 -52 66 -99 57 -189 -7 -79 0 -90 76 -134 25
-15 87 -54 136 -87 193 -130 235 -180 235 -284 0 -76 -1 -76 163 -133 l117
-41 61 53 c34 29 65 63 70 76 13 34 10 98 -6 167 -41 168 6 253 200 366 193
113 193 113 288 73 65 -28 109 -31 167 -14 20 6 65 8 105 4 59 -5 73 -4 85 10
12 15 10 24 -13 70 -44 86 -60 138 -45 148 7 4 16 8 19 8 13 0 31 61 25 85 -4
14 -27 56 -52 93 l-46 67 4 80 c3 44 1 90 -3 103 -5 13 -34 53 -64 88 -35 41
-55 75 -56 92 -1 15 -3 58 -4 96 -3 58 -8 75 -33 110 -28 38 -34 41 -79 42
-71 1 -73 2 -73 31 0 18 13 40 36 64 28 28 34 42 29 59 -15 46 -70 45 -155 -4
-25 -14 -55 -26 -67 -26 -23 0 -26 3 -103 122 -28 42 -70 98 -94 125 l-44 48
-48 -13 c-27 -7 -87 -30 -132 -52 -46 -22 -92 -40 -101 -40 -24 0 -68 33 -255
194 -87 75 -166 135 -175 135 -9 -1 -43 -7 -76 -14z"/>
<path d="M6040 21278 c-81 -75 -120 -95 -213 -109 -41 -6 -79 -14 -84 -17 -6
-4 -19 -28 -31 -54 -27 -62 -84 -102 -191 -134 -143 -43 -172 -56 -279 -127
-100 -67 -132 -102 -132 -147 0 -11 16 -62 36 -113 46 -116 44 -158 -11 -240
-51 -77 -58 -140 -21 -179 14 -17 36 -28 51 -28 32 0 33 -21 3 -80 -17 -32
-32 -47 -53 -54 -108 -31 -110 -33 -312 -241 -187 -194 -222 -235 -223 -262 0
-6 16 -30 36 -54 41 -49 40 -73 -7 -126 -26 -30 -29 -41 -29 -98 l0 -64 33 -5
c65 -10 444 -30 492 -26 95 8 200 4 244 -9 24 -7 60 -28 80 -47 20 -18 52 -47
71 -63 l35 -29 0 -94 c0 -51 4 -99 8 -105 17 -26 47 -13 80 34 46 67 96 121
117 128 11 3 33 -1 49 -9 39 -21 94 -20 153 1 45 16 48 16 95 -5 39 -17 49
-18 51 -7 12 52 -77 813 -136 1169 l-37 220 -30 8 c-38 10 -55 33 -55 73 0 41
27 65 73 65 26 0 40 -6 51 -22 22 -31 20 -74 -3 -97 -19 -19 -19 -21 5 -166
59 -365 123 -869 139 -1110 10 -152 11 -155 49 -155 40 0 93 34 124 80 20 29
22 45 21 122 -1 72 2 93 16 108 20 22 46 25 74 10 14 -7 26 -3 51 15 36 27 48
25 101 -17 43 -33 60 -35 82 -10 21 23 22 64 2 102 -15 28 -15 29 56 97 39 37
75 70 80 71 5 2 21 -3 34 -12 35 -23 42 -21 66 26 42 83 21 159 -50 178 -21 5
-41 16 -44 23 -3 7 12 53 33 103 27 62 35 93 28 101 -5 7 -45 33 -87 58 -114
66 -117 70 -113 176 3 100 -6 128 -63 178 -44 39 -58 39 -102 1 -70 -62 -143
-29 -182 82 -13 35 -41 93 -62 129 -48 80 -59 116 -59 194 -1 65 -18 125 -45
155 -10 11 -47 29 -82 41 -76 25 -103 48 -103 88 0 47 40 92 120 137 98 55
124 85 117 136 -5 41 -22 68 -41 68 -6 -1 -40 -28 -76 -62z"/>
<path d="M8442 20303 c-7 -3 -23 -26 -37 -52 -13 -26 -40 -62 -61 -80 -34 -31
-40 -32 -83 -25 -62 10 -76 10 -146 -6 -57 -12 -63 -12 -126 14 -93 37 -128
34 -213 -16 -39 -23 -96 -56 -127 -74 -76 -45 -145 -121 -160 -175 -9 -36 -9
-60 5 -134 32 -173 30 -186 -46 -257 l-62 -57 24 -26 c28 -30 129 -82 176 -91
19 -3 34 -8 34 -11 0 -3 -15 -23 -34 -46 -89 -110 -141 -301 -105 -381 15 -33
34 -39 75 -24 29 10 36 9 53 -6 12 -11 23 -35 27 -55 8 -49 30 -81 55 -81 28
0 60 35 99 109 42 78 84 112 140 113 56 1 87 -29 95 -91 14 -106 55 -148 182
-187 78 -24 123 -56 123 -86 0 -6 -22 -31 -50 -58 -27 -27 -50 -52 -50 -57 0
-16 23 -33 45 -33 34 0 65 -28 65 -60 0 -35 10 -39 85 -33 71 5 68 7 248 -136
71 -55 140 -104 154 -108 15 -3 48 0 75 7 61 15 86 9 172 -43 57 -34 79 -41
120 -42 48 0 51 1 49 25 -3 40 17 138 39 198 11 30 45 91 76 136 59 86 62 98
47 198 -7 56 -7 59 30 112 32 47 37 61 32 91 -9 54 7 83 56 104 33 14 49 30
71 71 30 56 69 80 126 80 35 0 67 28 76 67 18 76 59 126 132 162 23 12 42 28
42 36 0 19 -149 116 -251 164 -46 21 -129 54 -184 71 -55 18 -108 40 -117 49
-10 9 -25 42 -33 74 -21 80 -49 132 -101 184 -70 70 -147 100 -284 113 -63 5
-136 15 -162 21 -71 16 -121 66 -175 173 -49 98 -73 130 -115 152 -26 14 -80
17 -106 7z"/>
<path d="M6804 19794 c-19 -41 -34 -81 -34 -89 0 -8 17 -19 40 -25 51 -14 75
-49 75 -110 0 -83 -61 -158 -98 -121 -20 20 -42 11 -104 -48 l-62 -58 14 -39
c19 -53 18 -67 -6 -98 -27 -35 -62 -33 -109 4 -45 36 -56 37 -87 8 -21 -20
-26 -21 -59 -9 -31 11 -38 11 -56 -6 -18 -16 -20 -26 -14 -83 12 -133 -42
-213 -157 -234 l-39 -7 6 -107 c4 -59 9 -148 12 -197 l6 -90 228 -1 228 -1 6
28 c13 65 101 76 132 17 19 -37 5 -80 -32 -97 -36 -16 -49 -14 -82 14 l-30 25
-226 0 -226 0 -1 -282 c0 -156 -4 -337 -8 -403 -6 -105 -5 -125 11 -157 24
-50 23 -73 -7 -124 -18 -31 -29 -70 -36 -131 l-11 -87 32 -29 c27 -24 39 -28
69 -23 47 7 71 37 71 90 0 50 20 81 57 89 47 11 57 23 63 79 4 41 9 54 23 56
40 8 68 -9 102 -63 39 -61 59 -75 105 -75 56 0 122 51 166 128 21 37 46 41 68
10 21 -29 20 -71 -4 -258 -24 -183 -24 -190 -7 -190 7 0 62 25 122 55 60 30
145 67 190 81 54 18 91 38 113 60 36 36 39 55 17 98 -20 37 -19 55 6 129 29
87 16 145 -70 317 -77 152 -112 242 -146 380 -48 190 -76 506 -56 615 17 90
47 141 212 363 83 112 149 209 146 216 -3 7 -61 32 -129 56 -154 53 -164 62
-160 138 3 52 -1 64 -30 107 -33 48 -161 155 -186 155 -7 0 -29 -34 -48 -76z"/>
<path d="M7230 19201 c-85 -115 -168 -235 -185 -267 -28 -54 -30 -66 -34 -187
-8 -314 56 -611 186 -867 107 -209 121 -272 82 -376 -20 -54 -21 -59 -5 -91
36 -75 5 -137 -87 -171 -48 -18 -52 -22 -55 -56 -2 -25 1 -36 10 -36 7 0 81 7
163 15 649 64 1429 36 2216 -80 199 -29 209 -30 209 -11 0 18 47 56 70 56 34
0 70 -39 70 -75 0 -24 -7 -39 -26 -54 -36 -29 -60 -26 -96 9 -28 29 -40 32
-197 55 -563 83 -989 115 -1513 115 -320 0 -507 -8 -743 -30 -173 -17 -159 -7
-151 -102 4 -45 10 -87 14 -95 5 -7 30 -28 58 -46 40 -26 50 -39 54 -67 4 -29
10 -35 38 -41 50 -10 72 -35 72 -83 0 -32 -7 -50 -30 -76 -16 -19 -29 -40 -30
-46 0 -13 70 -41 113 -46 24 -3 11 -12 -84 -63 -117 -63 -142 -87 -137 -131 5
-45 32 -53 81 -25 179 103 230 115 339 80 l71 -23 53 29 54 29 27 -21 c51 -40
282 -163 305 -163 13 1 34 7 48 15 40 23 93 19 123 -9 30 -28 173 -244 188
-284 14 -35 3 -74 -35 -130 -51 -74 -63 -102 -96 -224 -21 -75 -42 -130 -65
-165 l-34 -52 42 -5 c23 -3 98 -8 167 -11 396 -20 959 -91 1455 -186 540 -103
1250 -290 1780 -469 65 -22 122 -40 125 -40 4 0 3 24 -1 53 -13 87 -10 164 7
207 15 37 25 45 103 82 164 78 289 173 395 300 70 83 86 89 132 49 19 -17 44
-31 55 -31 20 0 55 30 74 64 10 17 13 17 59 2 79 -27 136 2 136 68 0 36 -38
61 -148 95 -114 35 -202 89 -279 168 -29 31 -53 59 -53 63 0 4 13 13 29 20 70
29 98 104 52 141 -12 10 -49 24 -82 30 -65 13 -109 40 -109 69 0 25 20 39 74
49 36 7 56 18 85 50 l38 41 71 -6 c65 -6 71 -5 81 15 18 33 6 56 -75 137 -52
51 -82 74 -99 74 -32 0 -54 31 -160 230 -49 91 -99 174 -113 184 -13 10 -56
24 -96 32 -39 7 -85 15 -101 19 -29 6 -32 5 -54 -49 -13 -31 -27 -56 -31 -56
-5 0 -38 18 -73 40 -81 51 -203 96 -314 115 -92 16 -114 29 -133 76 -17 39
-48 54 -145 69 -90 14 -117 25 -195 85 -102 78 -154 92 -225 58 -45 -21 -68
-10 -113 57 -26 38 -50 57 -110 89 -97 50 -235 134 -477 290 -104 67 -246 150
-314 183 l-123 62 -40 -23 -39 -22 -64 29 c-35 17 -91 49 -125 72 -53 36 -65
41 -84 31 -50 -26 -101 -18 -180 30 -91 55 -114 60 -177 44 -70 -19 -89 -10
-240 111 -168 133 -176 137 -247 129 -64 -7 -72 -3 -89 50 -7 22 -19 33 -44
40 -49 14 -59 23 -59 50 0 16 15 36 45 61 73 59 57 90 -69 128 -125 39 -168
83 -182 186 -8 63 -31 90 -78 90 -50 0 -94 -37 -138 -115 -45 -82 -70 -105
-109 -105 -33 0 -54 27 -64 82 -10 51 -35 72 -68 57 -35 -16 -71 -5 -85 26
-17 37 -15 142 4 206 18 60 57 142 85 178 28 35 24 47 -26 66 -25 9 -68 32
-95 51 -27 19 -51 34 -53 34 -1 0 -72 -94 -157 -209z"/>
<path d="M21325 19235 c-114 -64 -266 -184 -322 -254 -26 -33 -57 -63 -68 -67
-69 -25 -325 13 -481 72 -50 19 -97 34 -103 34 -7 0 -40 -19 -74 -42 -94 -62
-253 -228 -334 -349 -73 -107 -125 -163 -169 -179 -13 -6 -68 -12 -122 -15
-144 -9 -159 -13 -203 -52 -53 -48 -70 -84 -79 -165 -4 -38 -13 -75 -20 -83
-6 -8 -46 -33 -88 -56 -89 -48 -269 -166 -280 -183 -4 -6 -7 -52 -7 -103 0
-88 -1 -93 -30 -123 -40 -42 -88 -66 -160 -79 -75 -14 -73 -14 -80 9 -4 12
-22 24 -46 31 -50 16 -88 1 -187 -71 -74 -54 -74 -54 -90 -33 -37 46 -117 60
-166 28 -33 -22 -66 -92 -66 -141 0 -47 31 -101 65 -114 13 -5 73 -14 132 -20
59 -6 113 -16 120 -21 27 -23 47 -113 45 -208 l-2 -93 50 -50 c28 -28 50 -56
50 -64 0 -26 39 -54 74 -54 50 0 103 22 216 88 152 91 198 97 305 42 22 -11
48 -20 60 -20 48 0 482 73 506 86 16 8 94 117 214 298 l187 286 79 0 c100 0
181 26 302 97 180 106 264 142 382 164 124 23 146 33 195 84 19 20 51 45 71
56 49 25 162 42 225 34 l52 -6 -33 -49 c-56 -83 -65 -204 -21 -289 19 -36 44
-56 89 -71 62 -20 77 -84 32 -139 -31 -36 -64 -48 -170 -60 -100 -11 -126 -21
-156 -61 -59 -78 -91 -102 -219 -171 -214 -114 -226 -122 -287 -215 -48 -74
-61 -86 -111 -109 -127 -58 -126 -57 -157 -121 -16 -34 -36 -68 -43 -77 -16
-18 -52 -26 -79 -16 -26 10 -35 3 -71 -56 -70 -114 -139 -309 -167 -474 -16
-91 -37 -134 -62 -129 -18 3 -29 21 -38 61 -5 23 -10 27 -39 27 -45 0 -64 -24
-86 -112 -16 -65 -23 -77 -61 -108 -94 -77 -112 -98 -105 -130 3 -17 24 -53
46 -81 22 -28 40 -59 40 -69 0 -12 12 -21 38 -28 l37 -10 -38 -1 c-49 -1 -45
-22 6 -35 32 -8 40 -6 60 12 32 30 103 158 116 208 18 68 21 69 240 69 136 0
203 4 217 12 12 7 36 35 54 63 18 28 45 60 61 71 32 22 59 20 59 -6 0 -10 14
-17 43 -22 l42 -8 -45 -5 c-44 -5 -45 -5 -48 -46 -4 -59 26 -94 82 -94 39 0
48 5 98 58 156 164 220 430 173 717 -34 208 -9 267 143 344 100 50 154 103
355 344 107 129 210 243 229 255 19 12 74 30 122 42 48 11 119 34 158 50 85
36 153 40 191 10 14 -11 39 -44 56 -74 24 -44 40 -59 84 -81 64 -31 139 -33
145 -3 2 9 -44 79 -101 156 -57 76 -107 152 -111 167 -19 74 82 221 252 367
53 46 55 74 8 125 l-34 37 20 27 c28 37 18 89 -23 123 -33 28 -54 33 -191 40
-73 4 -112 12 -157 31 -81 34 -116 32 -219 -12 -83 -34 -179 -50 -197 -31 -4
3 11 31 34 60 69 92 95 160 99 263 4 111 -13 152 -71 174 -33 12 -42 12 -81
-3 -25 -10 -65 -33 -90 -51 l-45 -35 -20 26 c-41 52 -17 108 67 161 124 78
144 120 67 141 -26 7 -63 28 -88 50 -99 90 -133 94 -252 27z"/>
<path d="M4510 19251 c-8 -5 -50 -18 -93 -30 -140 -38 -201 -80 -247 -171 -10
-21 -42 -95 -69 -166 -88 -225 -194 -385 -324 -489 -41 -33 -130 -85 -230
-134 -237 -117 -295 -177 -323 -339 -14 -84 -33 -110 -91 -131 -83 -30 -107
-63 -137 -186 -22 -88 -51 -133 -113 -173 -83 -53 -142 -60 -304 -36 -35 5
-78 -2 -189 -30 -148 -37 -212 -44 -252 -25 -15 6 -37 39 -60 89 -41 85 -118
175 -162 186 -14 3 -41 3 -59 0 -66 -12 -116 -57 -225 -201 -74 -99 -161 -195
-292 -325 -161 -159 -192 -195 -221 -255 -30 -61 -34 -78 -34 -150 0 -165 76
-232 285 -250 95 -9 137 -26 151 -62 20 -51 -10 -239 -62 -391 -16 -48 -29
-101 -29 -117 0 -31 101 -216 142 -262 30 -33 105 -47 209 -38 l89 7 0 -116
c0 -114 0 -116 38 -188 25 -48 51 -81 73 -95 57 -38 59 -41 59 -102 0 -51 7
-71 49 -152 27 -52 59 -123 71 -159 13 -36 28 -70 34 -77 11 -11 225 -57 233
-50 2 2 -4 24 -12 48 -9 24 -25 78 -35 121 -174 681 4 1231 551 1696 81 69 82
70 125 180 143 366 334 662 594 922 406 407 930 663 1631 796 79 15 343 54
369 54 10 0 11 3 3 11 -7 7 -76 28 -155 48 l-143 36 -11 40 c-15 57 -47 66
-117 36 -78 -35 -113 -38 -143 -10 -21 19 -24 31 -24 88 0 36 7 109 15 161 16
103 14 108 -37 124 -38 12 -48 44 -24 69 17 16 21 43 9 50 -5 3 -110 11 -236
18 l-227 12 2 61 c3 55 1 61 -17 63 -11 2 -27 -1 -35 -6z"/>
<path d="M5165 19113 c-11 -2 -48 -18 -82 -35 -85 -43 -95 -71 -27 -84 20 -4
38 -13 41 -21 3 -8 -1 -67 -11 -132 -22 -158 -21 -184 8 -218 l24 -28 49 18
c134 52 170 48 189 -18 l11 -40 143 -36 c84 -21 147 -42 154 -51 10 -13 24
-15 91 -8 44 5 142 11 219 15 l139 8 -7 171 c-9 233 -8 227 -66 253 l-49 21
-62 -21 c-54 -18 -66 -19 -103 -8 -82 25 -86 25 -113 0 -14 -13 -43 -50 -64
-81 -45 -66 -70 -83 -98 -69 -27 15 -31 32 -31 125 0 69 -4 88 -21 110 -11 14
-26 26 -34 26 -7 0 -25 16 -39 35 -41 53 -172 87 -261 68z"/>
<path d="M5965 18460 c-66 -4 -157 -11 -202 -15 l-83 -7 0 -49 c0 -47 2 -49
39 -69 22 -11 43 -25 47 -31 3 -6 7 -69 8 -139 1 -120 3 -131 31 -186 21 -40
50 -74 95 -112 36 -29 95 -80 131 -113 l67 -58 6 87 c22 323 18 704 -8 700 -6
0 -65 -4 -131 -8z"/>
<path d="M5420 18404 c-426 -68 -792 -182 -1115 -347 -495 -254 -865 -625
-1116 -1122 -41 -82 -90 -188 -108 -235 -19 -47 -36 -91 -38 -98 -3 -7 50 25
118 71 224 153 467 284 764 412 l119 52 -2 40 c-3 34 1 44 24 62 34 26 54 27
88 0 37 -29 36 -80 -1 -109 -22 -17 -36 -20 -68 -15 -35 5 -60 -3 -175 -53
-166 -73 -364 -172 -496 -248 -116 -67 -353 -225 -376 -251 -21 -23 -71 -182
-113 -358 -95 -393 -139 -831 -133 -1325 l3 -255 120 0 c140 0 178 -14 241
-89 l37 -44 70 121 c221 387 484 744 767 1041 542 571 1122 945 1895 1223 l80
28 23 130 c14 76 24 180 26 250 1 77 8 138 18 170 9 28 19 84 21 125 l5 75
-57 55 c-31 30 -92 84 -136 120 -61 50 -87 79 -110 124 -28 55 -30 69 -35 195
l-5 136 -39 20 c-42 22 -54 42 -55 93 -1 31 -2 32 -43 31 -24 0 -113 -12 -198
-25z"/>
<path d="M21236 17970 c-28 -11 -70 -40 -95 -64 -56 -55 -90 -70 -211 -90
-106 -19 -175 -47 -327 -138 -152 -89 -239 -121 -341 -122 l-83 -2 -188 -284
c-137 -209 -195 -288 -216 -298 -33 -15 -446 -82 -505 -82 -24 0 -61 11 -90
26 -76 39 -134 32 -242 -31 -158 -94 -185 -105 -252 -105 -49 0 -65 -4 -79
-20 -20 -24 -56 -25 -123 -5 -81 24 -108 20 -152 -24 -21 -21 -51 -41 -67 -45
-42 -8 -565 -73 -655 -81 -52 -5 -104 -2 -170 10 -235 41 -257 39 -375 -35
-48 -30 -99 -54 -131 -60 l-54 -11 0 -114 c0 -63 -4 -125 -10 -139 -5 -14 -28
-46 -51 -71 -56 -61 -70 -104 -52 -158 18 -53 46 -83 90 -98 59 -19 67 -63 28
-147 -30 -65 -32 -106 -5 -149 19 -32 74 -68 89 -59 5 3 13 32 20 64 14 72 65
160 107 184 18 10 61 24 95 30 35 6 76 19 91 29 36 26 65 24 110 -7 41 -29 32
-29 239 -8 56 5 80 2 160 -22 134 -41 233 -40 308 1 39 21 64 45 88 83 42 65
74 71 100 17 26 -54 57 -42 69 26 4 19 13 45 21 57 13 21 20 23 51 18 119 -20
159 -19 217 8 105 48 136 31 117 -63 -16 -74 -15 -96 3 -130 24 -48 73 -64
170 -56 80 7 84 6 99 -16 8 -13 18 -44 21 -69 12 -84 16 -93 80 -159 76 -79
90 -110 74 -158 -8 -25 -27 -44 -75 -74 -109 -69 -142 -125 -104 -177 28 -38
23 -79 -13 -106 -25 -18 -31 -19 -70 -7 -120 36 -123 30 -70 -128 15 -44 22
-84 18 -98 -3 -14 -8 -64 -11 -111 -4 -75 -1 -92 16 -119 20 -34 64 -53 82
-35 13 13 48 3 48 -14 0 -19 40 -44 71 -44 52 0 85 42 120 150 18 57 41 108
54 120 l22 21 27 -40 c34 -48 71 -66 109 -52 15 6 30 19 34 28 3 10 13 26 21
35 11 13 15 47 17 125 2 124 10 148 80 242 51 69 84 134 85 165 0 11 5 47 11
81 8 49 19 73 50 110 21 26 39 55 39 64 0 10 -20 44 -45 77 -60 79 -61 113 -4
163 108 95 116 105 124 151 11 70 31 107 65 125 48 25 77 13 90 -35 12 -45 35
-53 50 -17 5 12 17 62 25 112 31 171 113 385 196 509 30 44 33 47 40 27 6 -15
17 -21 37 -21 35 0 48 13 87 94 31 64 34 66 157 121 51 23 63 35 111 109 61
92 72 101 287 217 171 93 161 86 196 138 46 70 69 81 190 97 117 15 149 30
173 79 21 43 5 77 -44 93 -83 27 -120 90 -120 207 0 67 4 89 27 134 15 30 25
58 22 63 -10 16 -148 8 -198 -12z"/>
<path d="M6107 17570 c-3 -36 -4 -67 -2 -69 2 -2 12 13 21 33 16 33 16 39 2
68 l-15 32 -6 -64z"/>
<path d="M15805 17598 c-22 -5 -60 -26 -85 -47 -65 -55 -81 -61 -154 -61 -53
0 -70 -4 -86 -20 -11 -11 -20 -25 -20 -31 0 -6 9 -22 20 -36 25 -32 25 -35 -4
-135 -30 -105 -46 -232 -46 -375 l0 -113 68 -2 c157 -5 267 10 354 49 45 20
67 24 98 19 46 -7 60 8 40 43 -9 19 -8 21 14 21 57 0 61 80 10 163 -49 79 -53
120 -20 193 38 82 47 131 35 184 -25 110 -118 172 -224 148z"/>
<path d="M6773 17523 c-49 -80 -113 -126 -174 -125 -53 1 -74 15 -113 76 -49
77 -96 88 -96 22 0 -42 -31 -81 -75 -96 -42 -14 -55 -35 -55 -90 0 -80 -89
-120 -154 -69 -19 15 -27 17 -30 7 -5 -18 -54 -332 -52 -335 1 -1 31 7 67 17
132 41 379 103 534 135 97 20 162 38 166 46 4 8 17 99 29 202 17 144 20 194
11 213 -14 32 -37 30 -58 -3z"/>
<path d="M7038 17184 c-32 -13 -73 -33 -90 -44 l-33 -21 55 7 c142 17 145 18
148 40 6 39 -18 44 -80 18z"/>
<path d="M7055 17123 c-136 -18 -199 -33 -231 -58 -32 -25 -34 -25 -34 -6 0
12 -2 21 -4 21 -16 0 -241 -46 -346 -71 -173 -41 -403 -109 -416 -123 -6 -6
-23 -72 -38 -146 -59 -288 -175 -642 -303 -925 -109 -242 -287 -536 -443 -729
-39 -48 -69 -90 -66 -93 2 -3 60 13 128 35 275 90 660 185 978 243 l180 33 0
58 c0 64 19 120 52 155 11 12 55 34 98 48 69 23 85 34 161 108 75 72 117 101
365 246 379 223 545 326 637 394 81 60 90 78 52 103 -18 12 -25 11 -57 -11
-42 -29 -83 -32 -135 -10 -45 19 -128 19 -182 0 -22 -8 -72 -33 -110 -55 -81
-48 -117 -50 -141 -7 -14 25 -13 30 5 64 15 27 40 47 94 77 41 23 76 47 79 54
2 7 -16 21 -45 33 -26 12 -49 23 -51 24 -2 2 17 24 42 49 36 36 46 52 46 79 0
40 -23 64 -69 73 -29 6 -53 31 -50 51 4 24 -6 36 -51 64 -55 34 -70 66 -70
151 0 25 -3 53 -6 62 -6 16 -11 17 -69 9z"/>
<path d="M12251 16900 c-59 -33 -91 -58 -91 -72 0 -13 179 -340 198 -360 8
-10 28 -18 44 -18 21 0 33 -8 47 -30 10 -17 37 -45 60 -62 68 -50 89 -110 51
-148 -17 -17 -28 -18 -86 -13 l-66 6 -37 -41 c-30 -32 -46 -42 -84 -47 -98
-15 -79 -65 36 -91 77 -18 117 -51 117 -97 0 -23 -11 -41 -46 -73 l-46 -43 21
-30 c29 -40 134 -119 196 -146 28 -12 83 -32 124 -44 75 -23 131 -63 131 -95
0 -29 -24 -68 -51 -82 -34 -17 -59 -18 -112 -2 -34 10 -41 10 -45 -2 -3 -8
-15 -24 -28 -37 -31 -30 -74 -30 -112 2 -17 14 -37 25 -45 25 -8 0 -43 -33
-77 -72 -112 -131 -227 -218 -391 -296 -104 -50 -113 -64 -110 -190 2 -155 -7
-143 142 -196 l130 -45 152 83 c548 301 1054 627 1579 1019 181 134 187 140
173 160 -8 12 -15 32 -15 45 0 31 43 72 75 72 33 0 75 -42 75 -75 0 -36 -42
-75 -79 -75 -24 0 -75 -33 -223 -143 -534 -398 -1095 -758 -1611 -1036 -54
-29 -95 -57 -90 -61 4 -3 73 -30 153 -59 80 -29 243 -91 363 -139 l218 -85 27
31 c41 48 69 49 129 8 28 -19 62 -38 76 -41 38 -10 96 10 174 60 69 44 108 57
257 84 80 14 107 42 135 135 32 114 71 129 191 76 43 -19 85 -30 114 -30 59 0
86 -25 86 -78 0 -49 14 -62 66 -62 50 0 61 -12 73 -76 9 -46 30 -74 57 -74 50
0 94 58 94 123 0 31 3 35 31 41 17 3 64 6 104 6 57 0 78 -4 98 -20 26 -21 57
-27 57 -11 0 5 13 23 29 40 21 22 38 31 61 31 26 0 33 6 44 33 13 30 37 188
52 340 6 61 9 68 28 66 44 -3 54 2 65 31 5 17 24 38 42 48 17 9 63 37 102 62
63 40 79 45 128 45 40 0 63 -5 76 -17 11 -10 27 -18 36 -18 21 0 21 20 2 82
-10 36 -11 55 -4 78 12 34 35 44 82 35 56 -11 84 25 79 103 -1 14 -34 54 -86
106 -92 91 -103 113 -94 207 8 76 39 110 187 202 87 55 136 147 117 221 -8 34
-64 96 -85 96 -12 0 -28 -21 -47 -57 -36 -71 -60 -82 -139 -63 -63 15 -84 11
-194 -35 l-65 -27 -50 21 c-61 25 -72 26 -121 5 -63 -26 -164 -4 -209 45 -24
26 -32 26 -90 0 -35 -15 -68 -21 -125 -21 -86 0 -115 7 -276 60 -103 33 -119
36 -253 38 -168 4 -210 18 -236 86 -18 44 -47 51 -64 14 -6 -14 -23 -33 -37
-42 -40 -26 -94 -13 -198 50 -135 81 -262 134 -416 172 -96 24 -141 40 -153
54 -11 14 -18 50 -23 125 -8 117 -2 108 -92 118 -23 3 -79 21 -125 42 -199 88
-264 96 -357 45z"/>
<path d="M5820 16821 c-647 -244 -1165 -572 -1643 -1040 -350 -343 -642 -726
-916 -1203 -52 -90 -60 -111 -51 -128 13 -23 37 -25 64 -5 24 18 89 20 119 4
11 -7 49 -36 84 -65 54 -46 69 -54 104 -54 57 0 75 13 83 58 11 70 52 79 99
22 l25 -29 253 129 c350 177 676 319 954 415 123 43 138 54 235 175 257 323
470 730 615 1175 43 131 114 400 135 510 6 33 14 68 16 78 3 10 0 17 -8 17 -7
-1 -83 -27 -168 -59z"/>
<path d="M15859 16815 c-66 -34 -215 -58 -315 -51 -124 9 -134 -18 -52 -139
45 -67 52 -85 56 -137 3 -38 -2 -83 -13 -125 l-18 -65 37 -30 c47 -39 66 -76
66 -133 0 -86 -50 -153 -167 -222 -109 -65 -143 -112 -143 -194 0 -57 31 -110
99 -169 70 -61 96 -107 88 -158 -10 -56 -31 -72 -98 -72 -55 0 -59 -2 -65 -27
-4 -15 -1 -47 6 -72 22 -77 23 -107 6 -134 -16 -24 -15 -29 23 -128 62 -166
74 -261 47 -401 -27 -138 -92 -281 -188 -411 -80 -108 -143 -145 -193 -113
-41 27 -53 21 -60 -31 -12 -88 -16 -103 -38 -118 -29 -20 -72 -19 -140 5 -31
11 -68 20 -82 20 -35 0 -61 -29 -68 -78 -9 -55 -38 -75 -148 -102 -102 -26
-190 -77 -225 -132 -11 -18 -29 -46 -38 -62 -17 -26 -22 -28 -67 -24 -57 6
-89 30 -89 68 0 34 -18 57 -52 65 -22 6 -33 1 -58 -23 -24 -25 -30 -39 -30
-75 0 -41 -2 -44 -24 -40 -22 5 -26 1 -32 -32 -9 -50 1 -136 20 -174 19 -37
55 -56 116 -64 31 -4 50 -13 60 -28 8 -12 27 -35 43 -51 l27 -30 108 7 c100 7
109 6 135 -15 35 -28 36 -70 1 -115 -40 -53 -31 -74 51 -115 66 -33 71 -38 84
-82 14 -47 28 -58 78 -58 24 0 43 -26 43 -59 0 -11 11 -33 25 -49 39 -46 35
-101 -11 -152 -20 -21 -33 -43 -30 -48 6 -10 13 -13 142 -62 l81 -30 7 -72 c4
-40 11 -77 16 -82 6 -6 33 7 71 32 34 23 66 42 70 42 13 0 20 -19 28 -68 l6
-47 47 0 c67 -1 118 -54 118 -123 0 -15 6 -36 13 -46 13 -17 17 -17 75 13 106
53 233 132 275 170 22 20 48 54 58 76 27 58 24 166 -7 268 -5 16 0 15 45 -7
114 -58 151 -118 126 -204 -46 -157 -48 -168 -41 -215 10 -63 55 -114 111
-127 70 -16 287 32 480 106 125 49 135 56 135 104 0 58 -146 932 -170 1017
-28 101 -26 113 20 158 40 39 50 71 28 93 -7 7 -42 12 -88 12 -101 0 -114 13
-108 102 3 35 1 73 -3 85 -5 13 -39 43 -77 67 -115 73 -117 134 -9 230 l62 56
-1 98 c-2 224 -83 322 -266 322 -73 0 -174 18 -212 37 -105 53 -142 149 -96
252 13 29 20 65 20 108 0 35 5 73 11 85 11 20 11 20 33 -1 33 -31 85 -37 130
-16 45 21 54 38 67 118 12 75 27 99 74 121 32 15 54 17 160 11 105 -6 127 -5
159 10 60 29 56 84 -11 146 -36 34 -71 51 -163 79 -93 27 -134 48 -191 96 -69
58 -144 103 -217 130 -88 34 -102 47 -102 100 0 145 86 315 204 403 25 19 46
42 46 50 -1 9 -25 33 -55 54 -63 43 -88 96 -67 142 21 45 38 41 112 -28 39
-36 97 -82 129 -103 l59 -38 -5 -56 c-4 -44 -1 -67 15 -103 26 -58 44 -60 90
-7 19 23 52 50 74 61 30 15 38 24 33 37 -4 9 -10 41 -13 70 -5 60 4 65 67 33
51 -27 91 -74 148 -178 83 -150 155 -200 246 -171 52 16 77 60 77 135 0 39 5
58 24 80 13 15 27 38 31 51 4 13 27 46 52 74 24 27 48 61 53 74 10 25 5 232
-5 243 -4 3 -106 6 -228 6 -204 0 -226 2 -267 21 -56 26 -95 65 -126 125 -39
78 -120 131 -246 163 -81 20 -73 20 -129 -9z"/>
<path d="M2948 16494 c-277 -241 -455 -489 -546 -760 -82 -246 -93 -531 -32
-824 24 -110 68 -261 81 -274 12 -13 210 -26 277 -19 l53 6 -6 176 c-21 534
62 1214 199 1646 14 43 24 81 21 83 -2 2 -23 -13 -47 -34z"/>
<path d="M7825 16336 c-75 -62 -239 -166 -599 -379 -321 -190 -368 -221 -451
-298 -82 -77 -99 -88 -162 -107 -103 -32 -143 -88 -143 -199 0 -50 -6 -49 136
-28 387 57 655 76 1179 82 l471 5 31 49 c31 45 45 82 92 244 11 39 40 100 66
139 66 101 64 112 -44 277 -104 158 -123 172 -194 145 -67 -25 -90 -20 -208
44 -60 33 -115 60 -122 60 -7 0 -30 -15 -52 -34z"/>
<path d="M18655 16044 c-66 -29 -149 -34 -211 -14 -35 12 -39 11 -56 -10 -10
-12 -18 -34 -18 -49 0 -35 -26 -71 -51 -71 -12 0 -28 14 -40 35 -12 19 -27 35
-35 35 -7 0 -29 -24 -47 -52 -24 -38 -49 -62 -88 -83 -49 -27 -62 -30 -149
-30 -76 0 -114 6 -190 29 l-94 29 -106 -17 c-114 -18 -149 -14 -196 23 -33 26
-49 26 -85 0 -16 -11 -56 -24 -88 -29 -120 -17 -173 -74 -200 -215 -7 -33 -26
-87 -42 -121 -56 -113 -46 -194 28 -229 87 -42 558 -43 1008 -3 439 39 698 28
902 -37 43 -13 83 -25 89 -25 6 0 23 18 38 41 16 23 56 59 95 84 72 47 81 58
81 106 0 23 -17 47 -74 108 -73 79 -86 105 -86 175 0 17 -7 42 -16 54 -15 22
-20 23 -98 16 -68 -5 -89 -3 -120 11 -62 30 -82 103 -54 198 11 35 10 41 -7
53 -23 17 -19 18 -90 -12z"/>
<path d="M20573 15895 c-12 -8 -35 -38 -52 -66 -47 -75 -66 -80 -286 -77 -209
3 -202 6 -229 -77 -21 -64 -89 -178 -121 -203 -25 -20 -37 -20 -111 3 -41 13
-75 -54 -89 -176 -7 -60 -31 -107 -110 -220 l-50 -71 -5 -122 c-4 -82 -11
-131 -22 -151 -8 -16 -14 -43 -12 -60 2 -16 8 -76 15 -133 6 -56 15 -105 20
-108 5 -3 31 -7 57 -9 26 -1 79 -6 119 -10 72 -8 72 -8 83 19 11 30 37 44 55
30 54 -40 69 -44 292 -73 128 -17 243 -31 257 -31 33 0 54 23 61 68 24 154 57
253 175 522 109 251 159 415 145 480 -3 15 -26 51 -51 80 -57 67 -63 93 -35
145 21 38 21 41 4 50 -9 6 -30 22 -45 37 -25 24 -28 33 -28 97 0 39 -3 71 -8
71 -4 0 -17 -7 -29 -15z"/>
<path d="M7444 15390 c-280 -14 -838 -71 -941 -97 -28 -6 -29 -25 -4 -78 58
-126 206 -176 426 -145 74 10 93 17 118 41 36 35 52 36 71 7 15 -25 39 -228
30 -252 -9 -24 -31 -28 -202 -36 -151 -6 -164 -9 -187 -30 -31 -29 -31 -41 -2
-90 26 -47 18 -69 -34 -86 -71 -24 -40 -75 52 -88 85 -12 135 -100 90 -157
-26 -33 -66 -41 -110 -23 -48 20 -51 18 -51 -25 0 -45 0 -45 135 -56 233 -19
630 -83 900 -146 93 -21 171 -39 173 -39 1 0 -2 10 -9 21 -7 13 -9 40 -5 66 4
34 2 47 -12 58 -9 8 -33 28 -52 44 l-35 30 2 97 c2 64 -2 114 -12 147 -34 113
-15 178 77 266 64 62 71 87 41 144 -27 52 -21 137 15 199 39 71 94 104 192
118 42 6 86 18 100 29 27 20 48 66 36 78 -11 11 -595 13 -802 3z"/>
<path d="M8260 15366 c0 -55 -51 -88 -159 -101 -58 -7 -116 -32 -143 -62 -29
-32 -58 -106 -58 -150 0 -23 9 -65 20 -93 11 -28 20 -58 20 -66 0 -9 -29 -45
-64 -80 -97 -97 -112 -145 -81 -249 11 -33 15 -83 13 -149 l-2 -98 34 -29 c19
-16 43 -36 53 -44 13 -12 17 -28 15 -70 -1 -31 3 -60 9 -66 17 -17 42 -3 49
28 10 42 33 63 69 63 26 0 41 -9 70 -42 83 -95 86 -98 116 -98 16 0 40 7 53
15 26 18 126 138 126 153 0 5 -11 17 -25 26 -22 14 -25 24 -25 71 0 70 -24 90
-96 79 -65 -9 -77 7 -58 79 21 79 18 102 -21 152 -34 46 -44 71 -65 177 -6 31
-22 72 -35 90 -64 87 -64 106 -5 148 40 29 80 39 108 29 19 -7 28 -4 45 18 54
66 90 94 116 91 26 -3 26 -4 23 -74 -4 -82 15 -139 64 -188 44 -43 79 -55 128
-43 60 15 69 25 63 70 -7 48 7 87 29 87 13 0 151 -56 163 -66 2 -1 -6 -18 -18
-37 -25 -41 -26 -60 -5 -78 24 -19 74 -14 130 14 27 13 85 36 130 51 45 15
102 40 128 56 119 76 210 106 234 78 24 -30 44 -141 40 -221 l-5 -78 30 -16
c55 -28 87 -21 162 36 69 52 204 123 258 136 23 6 27 4 27 -13 0 -11 -10 -45
-21 -76 -20 -53 -21 -57 -5 -81 21 -33 46 -42 134 -51 101 -9 120 -3 128 45
13 81 100 123 169 82 55 -32 72 -28 86 20 12 39 40 69 66 69 7 0 22 -9 33 -20
16 -16 19 -28 14 -55 -8 -44 7 -52 118 -61 l85 -7 -4 -42 c-10 -83 44 -135
141 -135 49 0 65 -14 129 -115 18 -27 44 -56 60 -65 24 -13 30 -13 54 0 16 9
29 25 32 35 7 38 21 45 96 45 46 0 76 -5 82 -12 14 -18 51 -134 59 -185 4 -24
10 -43 15 -43 12 0 248 109 406 188 l142 72 -34 50 c-18 27 -38 65 -45 84 -11
35 -12 36 -193 95 -1076 354 -2114 566 -3112 636 -292 21 -295 21 -295 -9z"/>
<path d="M6400 15277 c-311 -48 -827 -175 -1170 -287 l-94 -31 -89 -94 c-266
-284 -662 -567 -1032 -736 -52 -24 -93 -48 -92 -54 2 -5 10 -9 18 -8 8 2 115
23 239 47 219 44 589 103 780 126 l96 12 22 38 c28 50 28 53 -8 93 -58 67 -29
120 82 151 74 21 98 39 98 76 0 38 -22 54 -65 46 -31 -6 -40 -3 -65 23 -30 29
-38 68 -24 105 9 23 53 19 99 -9 64 -40 89 -34 155 35 49 51 63 60 92 60 70 0
70 -37 1 -140 -48 -72 -52 -96 -24 -131 l19 -24 242 0 c240 0 242 0 260 -23
35 -42 49 -166 26 -223 -6 -14 24 -17 291 -23 164 -3 329 -9 366 -13 63 -5 69
-4 67 13 -9 81 14 115 51 75 23 -25 66 -27 97 -5 16 11 22 25 22 52 -1 59 -29
84 -110 97 -50 8 -69 20 -80 50 -11 28 5 52 39 60 48 10 56 29 32 68 -28 45
-27 78 4 107 24 22 37 25 183 32 214 12 202 7 201 71 0 95 -15 187 -31 203
-14 14 -18 14 -39 -10 -37 -39 -74 -48 -219 -53 -123 -5 -140 -3 -194 17 -70
27 -137 84 -158 137 -36 87 -27 80 -88 70z"/>
<path d="M8298 15160 c-14 -11 -40 -43 -58 -70 -28 -44 -34 -48 -47 -35 -23
24 -66 18 -111 -15 -48 -35 -52 -56 -18 -97 37 -44 53 -82 67 -161 12 -69 26
-99 86 -180 16 -22 16 -28 -2 -97 -10 -40 -15 -77 -12 -82 4 -6 29 -8 57 -5
76 7 100 -13 100 -83 0 -49 3 -55 30 -72 17 -9 30 -23 30 -30 0 -23 -120 -161
-154 -177 -51 -24 -79 -12 -142 60 -31 35 -68 67 -81 70 -30 8 -63 -20 -63
-52 0 -13 -10 -30 -21 -38 -20 -14 -18 -16 52 -36 415 -119 778 -259 1136
-439 79 -39 152 -71 163 -71 61 0 649 164 990 276 358 117 1047 386 1065 414
8 13 -21 144 -44 195 l-20 45 -66 0 c-62 0 -66 -1 -76 -27 -16 -44 -39 -63
-74 -63 -41 0 -78 29 -112 88 -44 77 -59 89 -121 97 -31 4 -70 14 -85 22 -35
17 -71 94 -63 129 7 27 2 29 -98 39 -84 8 -96 17 -96 70 0 82 -64 79 -88 -4
-16 -53 -40 -59 -97 -26 -33 20 -52 25 -75 20 -35 -8 -80 -57 -80 -89 0 -42
-29 -56 -111 -55 -94 1 -146 17 -172 52 -19 25 -20 31 -8 70 21 68 19 93 -4
89 -40 -7 -162 -72 -227 -121 -83 -63 -111 -70 -173 -42 l-47 21 7 72 c6 71
-3 141 -26 201 -21 50 -80 36 -234 -57 -33 -20 -85 -44 -115 -53 -30 -9 -89
-31 -132 -49 -89 -39 -115 -42 -152 -13 -32 25 -33 42 -5 81 12 16 20 31 17
33 -14 15 -133 63 -144 58 -10 -4 -14 -23 -14 -64 0 -67 -14 -82 -88 -93 -50
-7 -82 7 -128 56 -55 58 -69 95 -67 181 1 84 -4 90 -49 57z"/>
<path d="M15125 15135 c-33 -19 -84 -47 -112 -62 -40 -20 -55 -35 -63 -59 -11
-34 -26 -44 -64 -44 -22 0 -24 -5 -30 -77 -11 -120 -35 -285 -48 -316 -12 -32
-36 -47 -71 -47 -16 0 -34 -12 -51 -35 -31 -40 -55 -44 -94 -15 -25 18 -37 20
-114 14 l-87 -7 -6 -41 c-13 -76 -51 -116 -110 -116 -36 0 -63 32 -70 85 -8
50 -24 64 -73 63 -40 -1 -62 17 -62 53 0 15 -4 39 -10 53 -8 22 -16 26 -50 26
-23 0 -81 16 -132 36 -88 34 -93 35 -124 20 -29 -13 -36 -25 -54 -88 -34 -116
-52 -128 -235 -161 -64 -12 -97 -25 -164 -66 -122 -74 -179 -79 -255 -21 -50
38 -88 39 -116 3 -11 -14 -17 -30 -13 -34 4 -4 111 -50 238 -104 186 -79 233
-95 247 -86 32 20 75 13 97 -15 27 -35 27 -65 -2 -92 -49 -46 -133 -8 -125 57
3 23 -7 29 -127 81 -71 31 -178 76 -236 100 l-106 43 -47 -23 c-37 -17 -59
-21 -102 -18 -65 6 -97 26 -141 93 -41 62 -56 70 -103 56 -55 -16 -68 -14
-122 20 l-48 31 -48 -25 c-84 -44 -157 -60 -244 -54 -58 4 -80 2 -88 -8 -6 -8
-24 -15 -38 -17 -26 -3 -27 -6 -29 -63 -2 -33 -8 -101 -13 -152 l-11 -92 49
-48 c34 -32 54 -61 61 -89 9 -35 18 -45 55 -63 50 -23 72 -50 113 -141 41 -89
57 -101 137 -104 95 -3 114 -29 81 -109 -21 -51 -20 -55 23 -75 l37 -17 0 -85
c0 -95 14 -130 64 -173 38 -31 119 -62 189 -72 48 -6 52 -9 46 -28 -13 -44
-41 -77 -114 -135 -93 -73 -210 -196 -210 -220 0 -14 34 -35 133 -80 72 -34
140 -62 150 -62 10 0 39 11 65 24 103 52 259 58 440 17 121 -28 128 -37 90
-128 -19 -46 -20 -57 -10 -92 23 -76 110 -98 179 -45 l38 29 134 -3 c159 -3
196 -11 251 -57 48 -40 41 -38 75 -25 17 6 34 27 48 57 19 42 22 66 23 203 2
190 0 176 24 200 33 33 66 25 113 -26 42 -45 45 -46 272 -116 l230 -70 17 22
c25 31 22 77 -7 112 -14 16 -25 38 -25 49 0 38 -19 59 -54 59 -35 0 -66 25
-66 54 0 35 -23 58 -86 86 -88 40 -99 64 -56 126 39 55 40 76 5 104 -25 19
-35 21 -128 14 -117 -8 -133 -2 -169 55 -21 33 -31 40 -73 46 -69 10 -98 29
-122 78 -27 55 -30 186 -5 211 8 9 19 16 24 16 4 0 11 16 15 37 9 48 54 93 94
93 39 0 71 -31 71 -68 0 -37 25 -59 78 -68 40 -6 42 -5 59 27 27 49 92 117
138 144 22 14 82 35 133 49 107 27 130 44 139 99 12 79 65 96 176 57 69 -25
89 -25 116 -2 16 13 23 32 28 77 3 33 10 68 15 78 11 21 41 22 58 2 7 -8 28
-15 47 -15 27 0 43 9 83 49 84 84 169 229 214 363 57 171 54 320 -11 483 -20
50 -42 113 -48 140 -9 39 -19 55 -45 73 -45 30 -75 28 -145 -13z"/>
<path d="M4893 14871 c-99 -38 -252 -99 -340 -136 -156 -66 -700 -332 -737
-360 -19 -14 -19 -15 -1 -35 10 -11 28 -20 39 -20 14 0 8 -6 -20 -19 -82 -37
-111 -109 -74 -185 36 -75 33 -75 310 60 229 112 466 261 637 399 165 133 404
366 376 365 -4 0 -90 -31 -190 -69z"/>
<path d="M5360 14801 c-74 -77 -94 -82 -165 -42 -62 35 -80 38 -89 15 -11 -28
-6 -51 15 -78 17 -22 29 -26 68 -26 60 0 86 -24 76 -69 -9 -41 -45 -67 -112
-81 -58 -12 -103 -45 -103 -76 0 -9 14 -32 30 -51 33 -37 38 -69 15 -99 -20
-26 -19 -43 3 -38 42 9 377 34 582 44 124 6 235 13 247 15 36 8 49 74 29 153
-9 36 -21 71 -27 78 -8 10 -69 14 -254 16 -222 3 -245 5 -264 22 -35 32 -27
80 25 161 51 79 54 108 11 113 -24 3 -39 -7 -87 -57z"/>
<path d="M19256 14698 c-8 -24 -25 -70 -36 -102 -22 -67 -59 -112 -98 -119
-14 -3 -45 2 -68 11 -24 9 -46 13 -49 10 -3 -3 -10 -101 -15 -218 -8 -172 -7
-230 5 -299 8 -47 19 -160 25 -251 17 -262 39 -333 147 -489 94 -134 107 -176
132 -426 12 -115 24 -218 27 -227 7 -23 31 -23 71 2 36 22 60 54 78 107 11 33
13 34 19 15 15 -46 100 -66 155 -38 76 40 161 183 161 272 0 42 -7 61 -39 111
-57 88 -61 98 -71 160 -12 70 4 231 26 276 9 18 33 50 55 72 48 50 65 90 84
201 31 178 13 378 -48 542 l-32 87 -135 9 c-74 5 -138 13 -142 19 -3 6 -12 49
-18 96 -23 180 -17 164 -57 156 -43 -8 -86 9 -108 41 -24 38 -51 31 -69 -18z"/>
<path d="M18801 14708 c-5 -13 -15 -37 -21 -55 -11 -29 -14 -31 -36 -21 -20
10 -29 8 -52 -9 -41 -31 -52 -61 -52 -150 0 -119 -2 -121 -65 -68 -70 61 -91
59 -163 -9 -70 -65 -82 -72 -154 -80 -87 -11 -98 -24 -102 -126 -3 -71 -8 -96
-35 -150 -17 -36 -31 -80 -31 -98 0 -51 44 -172 115 -320 51 -105 68 -133 82
-130 22 4 29 65 14 111 -6 16 -10 32 -8 34 9 8 95 -123 124 -189 37 -84 48
-89 122 -57 111 47 139 126 81 224 -53 89 -34 165 40 165 15 0 34 6 44 13 16
12 17 24 9 152 -5 77 -8 142 -6 144 2 3 23 -14 46 -37 24 -23 48 -42 55 -42 6
0 21 14 34 30 18 25 29 30 62 30 23 0 46 4 53 8 8 5 14 65 18 192 3 102 8 198
10 213 4 25 0 30 -40 47 -56 24 -75 60 -75 140 l0 60 -30 0 c-22 0 -33 -6 -39
-22z"/>
<path d="M11870 14659 c0 -18 54 -111 73 -127 12 -11 27 -7 81 20 36 18 66 35
66 38 0 3 -44 21 -97 39 -54 19 -104 36 -110 39 -7 2 -13 -2 -13 -9z"/>
<path d="M2166 14650 c-47 -9 -86 -49 -86 -89 0 -34 41 -81 71 -81 21 0 22 -1
4 -20 -26 -29 -105 -77 -155 -95 -70 -25 -172 -38 -203 -26 -25 10 -27 14 -27
75 0 42 -4 65 -12 68 -7 3 -100 -16 -206 -41 l-193 -46 -19 -41 c-23 -53 -65
-69 -159 -61 -81 7 -138 27 -216 75 -58 35 -65 37 -180 43 -66 4 -178 8 -248
8 -86 1 -139 6 -162 15 -44 19 -50 10 -59 -74 -7 -73 -24 -103 -79 -139 -36
-23 -48 -53 -27 -66 6 -3 10 -19 10 -35 0 -34 -41 -72 -97 -91 -123 -40 -136
-127 -45 -285 54 -93 60 -116 40 -159 -19 -43 3 -69 126 -150 149 -98 357
-206 476 -246 78 -26 115 -33 206 -37 135 -5 197 10 301 74 91 57 129 64 179
35 42 -25 35 -29 142 74 l63 60 -29 -65 c-43 -96 -114 -213 -194 -317 -77
-102 -63 -95 -240 -133 -67 -15 -127 -37 -195 -71 -85 -43 -102 -49 -139 -43
-33 5 -52 0 -95 -22 -42 -21 -69 -27 -122 -28 -76 0 -87 7 -87 60 0 17 -9 43
-21 58 -42 53 -129 19 -129 -50 0 -85 254 -488 360 -572 18 -14 58 -28 102
-37 84 -16 102 -32 95 -88 -5 -35 1 -46 68 -135 175 -233 399 -466 522 -546
123 -79 205 -102 300 -85 73 13 306 88 314 101 3 5 9 59 13 119 36 600 239
1307 555 1938 l50 99 -29 12 c-47 20 -115 100 -135 159 -32 98 -1 224 73 294
l29 28 -64 129 c-36 70 -91 193 -122 271 l-58 143 -94 18 c-52 9 -103 19 -114
21 -11 2 -38 1 -59 -3z"/>
<path d="M2863 14613 l-63 -4 0 -63 c0 -63 14 -275 26 -373 5 -50 7 -53 35
-53 16 0 51 -8 77 -18 l49 -19 98 197 98 197 -20 29 c-65 90 -140 117 -300
107z"/>
<path d="M2460 14600 c0 -21 86 -224 156 -369 62 -130 76 -152 91 -146 10 4
37 15 61 23 26 9 42 21 42 30 0 22 -32 457 -34 458 -8 7 -316 11 -316 4z"/>
<path d="M12037 14541 c-57 -30 -67 -39 -61 -56 3 -11 9 -38 12 -60 6 -36 11
-41 45 -49 54 -14 158 6 231 43 32 17 66 31 74 31 8 0 36 -13 61 -29 43 -28
49 -29 94 -19 69 14 89 6 128 -54 43 -65 75 -89 131 -95 45 -5 118 17 118 36
0 15 -717 293 -750 290 -8 -1 -46 -18 -83 -38z"/>
<path d="M11865 14453 c-38 -20 -160 -78 -270 -130 -110 -51 -203 -98 -207
-105 -7 -13 -31 -84 -50 -149 -10 -33 -8 -41 17 -85 38 -64 108 -138 150 -158
47 -22 130 -20 181 4 60 30 127 105 154 176 18 47 24 87 29 199 l6 140 33 3
c20 2 36 10 40 20 3 9 12 23 19 30 7 7 13 20 13 27 0 23 -22 65 -34 65 -6 -1
-42 -17 -81 -37z"/>
<path d="M3157 14389 c-19 -35 -63 -120 -96 -188 l-61 -125 27 -25 c16 -15 39
-41 53 -60 l25 -33 150 98 c83 54 224 142 315 196 224 132 211 120 180 152
-36 39 -62 31 -73 -22 -7 -35 -15 -46 -42 -59 -51 -24 -96 -11 -169 51 -74 63
-96 76 -131 76 -34 0 -83 -29 -91 -53 -5 -16 -9 -14 -28 18 l-23 37 -36 -63z"/>
<path d="M3735 14331 c-16 -10 -93 -55 -170 -101 -77 -45 -211 -129 -298 -186
l-159 -104 7 -33 c11 -47 11 -47 63 -32 26 8 158 43 294 79 136 36 264 72 284
81 l36 15 -26 30 c-51 61 -43 155 16 205 25 21 30 30 21 43 -15 24 -33 25 -68
3z"/>
<path d="M5920 14286 c-83 -12 -94 -25 -65 -70 12 -17 16 -41 13 -73 l-3 -48
75 -7 c41 -3 103 -9 137 -12 l62 -6 -1 54 c-2 80 28 111 56 58 17 -33 54 -52
102 -52 38 0 83 -19 103 -44 23 -28 46 -17 81 37 27 39 41 52 60 52 20 0 27
-8 42 -50 30 -86 101 -122 148 -75 26 26 25 50 -4 108 -13 26 -27 61 -30 79
-6 24 -14 33 -34 37 -27 6 -566 27 -632 25 -19 -1 -69 -7 -110 -13z"/>
<path d="M5540 14279 c-173 -12 -464 -39 -469 -45 -7 -7 24 -67 54 -102 l28
-33 201 3 c110 2 266 1 346 -1 l145 -3 8 42 c7 36 5 47 -17 79 -14 20 -26 45
-26 54 0 19 -49 21 -270 6z"/>
<path d="M6705 14249 c4 -13 20 -54 36 -91 28 -64 29 -70 14 -97 -18 -35 -70
-56 -106 -42 -34 13 -57 42 -79 97 -10 27 -24 50 -31 52 -13 2 -104 -126 -96
-134 2 -2 52 -13 113 -24 552 -106 1034 -305 1389 -573 60 -45 115 -88 124
-94 26 -20 523 54 936 139 110 23 212 43 228 46 15 2 27 8 27 12 0 8 -255 136
-400 200 -628 278 -1368 465 -2084 526 l-78 7 7 -24z"/>
<path d="M4810 14205 c-259 -37 -614 -99 -802 -141 -65 -15 -68 -17 -68 -45 0
-34 13 -36 115 -19 185 30 668 78 962 96 l112 6 -35 50 c-19 28 -34 56 -34 64
0 19 -50 17 -250 -11z"/>
<path d="M11265 14174 c-506 -224 -1242 -471 -1817 -610 -65 -15 -118 -31
-118 -35 0 -4 8 -10 17 -14 35 -13 311 -180 443 -268 154 -102 435 -311 560
-417 47 -39 104 -87 127 -107 l43 -35 31 26 c17 14 35 26 40 26 5 0 9 23 9 50
0 63 20 104 73 150 36 32 40 41 41 85 1 55 13 65 94 86 24 5 60 25 79 43 31
28 37 40 41 88 5 64 -7 82 -67 98 -41 11 -65 31 -125 104 l-39 48 -56 -6 c-31
-4 -75 -10 -99 -13 -53 -6 -92 16 -92 53 0 14 14 45 31 68 l30 43 -17 44 c-26
69 -29 127 -9 150 27 29 43 24 90 -27 l42 -47 81 13 c77 13 84 12 179 -13 114
-31 209 -35 297 -12 74 19 157 60 202 99 l36 31 -46 68 c-48 71 -55 103 -35
154 28 71 38 113 26 113 -7 0 -48 -16 -92 -36z"/>
<path d="M6157 14173 c-11 -10 -8 -91 3 -98 16 -10 260 -42 260 -35 0 9 -52
56 -77 69 -12 6 -38 11 -58 11 -41 0 -90 22 -98 45 -7 16 -19 19 -30 8z"/>
<path d="M5170 14088 c0 -2 9 -21 20 -43 27 -52 26 -63 -12 -120 -32 -48 -33
-51 -30 -153 5 -187 -38 -268 -155 -293 -77 -16 -95 -25 -68 -35 11 -4 76 -31
144 -60 118 -51 132 -54 270 -69 257 -26 518 -44 826 -56 l300 -12 135 55 c74
31 192 84 262 118 l127 62 -6 43 c-4 35 -2 46 16 64 46 46 121 13 121 -52 0
-45 -26 -67 -77 -67 -29 0 -81 -20 -194 -74 -85 -40 -192 -89 -238 -107 l-84
-34 204 -3 c294 -5 703 15 1109 54 240 23 232 16 114 105 -423 318 -953 521
-1622 619 -168 25 -175 25 -187 -2 -6 -13 -35 -36 -65 -53 -46 -26 -57 -37
-71 -79 -10 -26 -25 -53 -34 -60 -9 -6 -73 -33 -141 -60 -102 -40 -130 -47
-148 -38 -30 14 -60 77 -60 131 -1 35 4 47 24 62 24 18 27 18 88 1 61 -16 64
-16 77 1 15 20 31 134 21 145 -7 7 -666 17 -666 10z"/>
<path d="M4835 14069 c-190 -14 -523 -49 -710 -75 -202 -27 -205 -29 -205
-104 0 -84 30 -112 225 -208 11 -5 99 -29 195 -52 96 -23 256 -69 355 -102
l179 -60 81 16 c96 19 122 36 155 102 23 44 25 61 25 175 0 121 1 127 28 165
31 46 34 84 10 125 l-17 29 -106 -1 c-58 -1 -154 -6 -215 -10z"/>
<path d="M5860 14078 c0 -9 -21 -124 -26 -141 -10 -32 -38 -38 -92 -21 -89 29
-123 1 -101 -81 16 -56 38 -85 65 -85 21 0 230 78 261 98 6 4 20 30 30 57 16
42 26 54 66 76 57 31 82 53 73 67 -3 5 -45 13 -93 16 -49 4 -109 9 -135 12
-27 3 -48 4 -48 2z"/>
<path d="M3885 14060 c-3 -6 1 -7 9 -4 18 7 21 14 7 14 -6 0 -13 -4 -16 -10z"/>
<path d="M3801 14019 c-95 -22 -395 -122 -341 -114 114 18 447 76 458 80 6 2
12 16 12 30 0 31 -11 31 -129 4z"/>
<path d="M2763 13978 c-109 -63 -109 -84 3 -148 l76 -43 45 24 c55 30 65 41
57 64 -8 21 -93 77 -105 69 -17 -10 -8 -24 32 -50 l42 -26 -33 -21 -33 -21
-64 34 c-34 19 -63 38 -63 42 0 10 84 65 112 73 10 4 41 -8 75 -28 45 -25 59
-40 63 -62 4 -25 7 -26 18 -12 27 32 10 59 -63 103 -38 24 -74 43 -80 43 -5 0
-42 -18 -82 -41z"/>
<path d="M11836 13961 c-46 -90 -163 -171 -246 -171 -39 0 -90 19 -129 48 -22
16 -38 22 -46 16 -66 -50 -146 -95 -206 -114 -98 -32 -225 -32 -324 0 -77 25
-116 27 -216 15 l-66 -8 -33 42 c-34 42 -57 50 -78 29 -18 -18 -15 -60 8 -109
27 -59 25 -79 -10 -125 -35 -47 -37 -68 -8 -88 28 -20 54 -20 126 0 74 20 99
11 154 -61 24 -31 58 -62 78 -70 98 -43 116 -68 105 -137 -11 -64 -61 -111
-140 -133 -73 -19 -87 -35 -79 -87 6 -32 2 -38 -40 -74 -54 -45 -82 -106 -72
-157 6 -32 4 -36 -29 -56 -20 -11 -38 -27 -41 -36 -4 -9 24 -42 83 -97 48 -45
142 -135 208 -200 65 -65 124 -118 130 -118 20 -1 45 -28 57 -60 10 -31 9 -35
-21 -62 -37 -33 -59 -35 -95 -7 -35 28 -36 80 -2 107 l25 19 -162 159 c-89 88
-181 177 -204 199 l-43 39 -27 -26 c-61 -57 -135 -86 -145 -56 -3 9 -27 10
-103 2 -113 -13 -125 -22 -125 -93 0 -61 -27 -112 -110 -206 -85 -95 -117
-154 -126 -229 -8 -70 -34 -112 -73 -121 -40 -8 -45 -28 -42 -157 2 -91 -1
-113 -18 -147 -17 -31 -19 -46 -11 -66 16 -42 12 -53 -25 -65 -74 -24 -134
-104 -135 -177 0 -45 9 -62 41 -79 41 -21 62 -58 61 -109 0 -47 -11 -72 -53
-126 -41 -52 -38 -69 11 -69 53 0 60 -16 60 -138 0 -112 -2 -117 -82 -151 -59
-25 -61 -42 -8 -91 36 -33 40 -42 40 -83 0 -63 -17 -95 -62 -118 -72 -37 -60
-53 163 -225 185 -142 189 -146 189 -182 -1 -48 -30 -113 -65 -140 -42 -33
-85 -29 -135 13 -23 19 -48 35 -55 35 -48 0 -255 -315 -255 -389 0 -35 36 -75
60 -66 8 4 -4 -13 -26 -37 l-41 -43 23 -53 c27 -60 42 -69 91 -54 55 17 89 -4
188 -114 95 -106 120 -151 111 -196 -6 -29 20 -68 45 -68 33 0 78 -35 102 -78
25 -47 57 -168 57 -216 0 -13 7 -32 16 -40 14 -15 18 -14 47 8 42 32 106 48
156 40 73 -12 86 -3 120 85 17 44 37 117 44 163 8 46 19 93 26 106 6 12 42 37
79 56 80 41 111 72 191 193 42 65 83 112 138 158 125 107 148 164 119 297 -9
40 -27 127 -41 193 -20 94 -33 131 -59 170 -50 75 -54 84 -61 165 -11 134 -12
138 -76 206 -58 62 -60 66 -57 112 6 96 72 89 278 -29 156 -90 213 -116 276
-128 93 -18 184 20 184 75 0 36 -36 54 -108 54 -78 0 -126 19 -151 61 -25 42
-26 47 -56 391 -31 357 -33 350 60 358 l59 5 24 62 c41 108 103 129 304 103
157 -21 211 7 265 139 l28 69 42 -1 c62 -3 72 13 44 68 -26 52 -22 90 13 133
12 15 28 47 35 72 15 52 56 136 71 145 15 9 12 51 -7 104 -20 58 -13 103 28
164 39 60 77 89 251 195 78 48 142 92 143 97 0 6 -17 19 -38 30 -58 31 -52 59
36 151 39 42 106 103 148 135 72 56 109 104 92 119 -4 4 -35 13 -68 20 -107
22 -171 64 -207 134 -17 34 -19 51 -14 111 7 76 2 89 -38 96 -36 7 -42 34 -22
93 25 73 17 83 -74 88 -86 5 -100 16 -152 125 -37 78 -75 123 -103 123 -19 0
-51 42 -64 82 -10 30 -79 108 -96 108 -3 0 -16 -22 -29 -49z"/>
<path d="M3745 13939 c-178 -31 -485 -89 -557 -105 -55 -13 -68 -19 -68 -35 0
-17 8 -19 103 -19 186 0 504 -30 745 -71 68 -12 125 -19 128 -16 3 2 -24 17
-60 32 -36 15 -74 37 -85 49 -35 37 -53 95 -46 143 6 42 6 43 -22 42 -15 -1
-77 -10 -138 -20z"/>
<path d="M3388 13913 c7 -3 16 -2 19 1 4 3 -2 6 -13 5 -11 0 -14 -3 -6 -6z"/>
<path d="M3318 13893 c7 -3 16 -2 19 1 4 3 -2 6 -13 5 -11 0 -14 -3 -6 -6z"/>
<path d="M3255 13880 c-13 -5 -14 -9 -5 -9 8 0 24 4 35 9 13 5 14 9 5 9 -8 0
-24 -4 -35 -9z"/>
<path d="M3208 13863 c7 -3 16 -2 19 1 4 3 -2 6 -13 5 -11 0 -14 -3 -6 -6z"/>
<path d="M2680 13838 c0 -22 13 -33 87 -77 l73 -42 42 22 c82 42 118 69 118
89 0 17 -10 13 -77 -26 -87 -52 -74 -53 -190 16 -35 21 -53 27 -53 18z"/>
<path d="M2680 13767 c0 -8 8 -21 18 -29 28 -24 128 -78 145 -78 8 0 47 18 86
41 50 29 71 46 71 61 0 18 -4 17 -57 -13 -32 -17 -62 -36 -67 -41 -19 -16 -51
-8 -117 32 -75 44 -79 46 -79 27z"/>
<path d="M3111 13749 c-6 -16 -5 -26 3 -31 47 -27 1118 -259 1132 -245 3 2
-23 14 -56 26 -69 25 -84 45 -69 89 18 51 9 75 -31 84 -182 39 -552 80 -827
94 l-143 6 -9 -23z"/>
<path d="M3081 13686 c-10 -12 0 -22 61 -57 40 -23 136 -79 213 -125 77 -46
212 -114 300 -152 160 -69 439 -171 420 -154 -5 5 -48 38 -95 72 -189 139
-463 281 -720 373 -170 61 -165 60 -179 43z"/>
<path d="M4140 13604 c-8 -33 -10 -58 -4 -63 20 -18 192 -84 254 -96 84 -17
402 -65 433 -65 15 0 23 6 23 18 0 9 3 26 7 38 7 19 -5 25 -148 73 -127 42
-391 115 -526 145 -24 5 -27 2 -39 -50z"/>
<path d="M3410 13601 c240 -100 433 -208 615 -345 106 -80 115 -84 225 -114
106 -29 300 -70 410 -87 l45 -7 -27 27 c-16 15 -28 37 -28 48 0 11 -18 44 -40
72 -93 121 -244 237 -323 250 -112 18 -604 118 -780 159 -109 25 -202 46 -205
46 -4 0 45 -22 108 -49z"/>
<path d="M3018 13617 c-16 -13 -28 -26 -28 -29 0 -3 70 -122 156 -265 203
-334 374 -629 539 -928 136 -247 408 -765 424 -808 l10 -25 74 39 c85 44 92
51 109 105 17 51 57 65 201 70 59 2 112 6 117 9 18 11 10 44 -15 61 -21 14
-46 15 -182 9 -174 -7 -200 -1 -217 47 -7 20 -4 32 12 56 17 23 22 45 22 92 0
57 3 65 33 95 23 23 53 39 93 49 113 31 109 29 112 65 2 18 -6 82 -18 142 -25
126 -21 139 41 139 21 0 50 5 66 11 l28 10 -42 40 c-23 21 -52 39 -63 39 -35
0 -60 19 -60 45 0 19 -26 46 -117 123 -278 231 -725 544 -938 657 -60 32 -157
84 -213 116 -57 33 -107 59 -110 59 -4 -1 -19 -11 -34 -23z"/>
<path d="M2935 13570 c-11 -5 -34 -9 -51 -9 -29 -1 -32 -4 -38 -43 -16 -114
-25 -629 -16 -898 13 -347 45 -750 60 -750 10 0 35 65 44 112 4 22 2 56 -5 80
-7 24 -13 84 -13 133 -1 82 -3 91 -22 99 -20 9 -16 15 56 85 59 58 81 88 94
125 18 57 21 109 6 137 -21 38 19 20 81 -37 l61 -56 51 9 c177 28 325 -22 220
-75 -21 -11 -71 -25 -111 -31 -41 -6 -87 -18 -102 -26 -35 -18 -73 -67 -89
-114 -43 -131 57 -270 196 -271 l48 -1 -74 -29 c-41 -16 -78 -33 -83 -38 -6
-6 -3 -23 8 -43 27 -53 22 -109 -14 -166 -46 -72 -44 -115 14 -233 74 -153 96
-243 97 -390 1 -98 -4 -144 -21 -213 -12 -49 -22 -94 -22 -101 0 -7 30 -33 68
-59 37 -25 89 -71 115 -101 60 -69 86 -72 173 -20 82 49 140 108 176 181 33
67 34 103 8 193 -17 61 0 103 45 108 26 3 37 -4 77 -49 41 -47 52 -54 85 -54
68 1 179 102 200 183 8 34 -73 204 -126 264 -36 41 -43 53 -34 66 25 37 -473
959 -910 1687 -191 318 -214 355 -225 354 -4 0 -16 -4 -27 -9z"/>
<path d="M2662 13382 c-286 -589 -448 -1156 -507 -1768 -18 -190 -18 -184 -2
-184 25 0 277 107 429 182 155 77 185 100 174 136 -5 13 2 21 26 30 18 6 46
24 62 38 25 24 28 31 22 73 -49 380 -69 1032 -45 1468 6 107 9 196 7 197 -1 2
-19 6 -39 9 l-37 5 -90 -186z"/>
<path d="M9278 13525 c-6 -6 -337 -74 -533 -109 -160 -29 -601 -96 -634 -96
-5 0 45 -55 113 -122 135 -136 210 -225 308 -368 200 -290 341 -612 448 -1017
11 -42 12 -43 54 -43 23 0 110 14 192 31 160 33 235 35 291 6 26 -14 31 -24
37 -68 11 -82 46 -133 97 -144 46 -10 69 3 91 52 17 39 19 57 13 133 -9 113 4
158 47 167 39 8 57 37 69 114 14 87 37 130 125 229 88 100 106 136 112 213 5
71 20 82 112 92 36 3 77 8 91 11 17 3 33 -1 44 -12 15 -16 19 -16 50 -1 18 8
49 30 70 48 36 32 36 33 17 48 -11 9 -75 63 -143 120 -280 235 -596 457 -904
633 -131 75 -160 89 -167 83z"/>
<path d="M4867 13433 c-10 -10 -8 -51 2 -58 12 -7 242 -37 247 -32 4 4 -217
97 -232 97 -6 0 -14 -3 -17 -7z"/>
<path d="M4380 13428 c0 -3 24 -21 54 -42 54 -37 159 -142 207 -206 l26 -35
37 18 c23 11 61 17 104 17 92 1 143 14 170 46 34 39 26 66 -23 76 -22 5 -56
19 -75 32 -28 19 -75 30 -245 55 -115 18 -220 35 -232 38 -13 3 -23 3 -23 1z"/>
<path d="M3750 13250 c191 -131 428 -309 585 -440 92 -77 113 -90 135 -85 14
4 27 8 29 11 13 13 -150 208 -278 331 l-95 93 -126 42 c-69 22 -183 65 -255
95 -71 30 -137 57 -145 60 -8 3 59 -45 150 -107z"/>
<path d="M4896 13341 c6 -7 33 -18 60 -25 42 -10 49 -16 52 -40 8 -67 -55
-106 -175 -106 -84 0 -163 -26 -163 -54 0 -29 68 -74 91 -60 5 3 9 1 9 -4 0
-15 49 -21 250 -32 223 -12 630 8 630 31 0 11 -191 124 -342 202 -120 61 -130
64 -234 76 -60 7 -127 15 -149 18 -31 4 -37 3 -29 -6z"/>
<path d="M5350 13250 c63 -34 167 -93 231 -131 l116 -69 89 15 c145 26 300 63
444 106 74 23 143 44 153 46 47 14 5 23 -107 23 -190 0 -825 42 -1001 66 -34
5 -24 -3 75 -56z"/>
<path d="M7925 13300 c-238 -32 -693 -58 -1120 -66 l-340 -6 -120 -38 c-162
-52 -365 -104 -505 -131 -63 -11 -116 -22 -118 -24 -1 -1 17 -15 40 -30 78
-51 302 -220 397 -300 206 -173 462 -433 652 -661 l121 -146 37 35 c20 19 48
37 62 40 39 10 100 -11 138 -46 31 -30 86 -106 79 -111 -2 -1 -23 -8 -47 -15
-46 -13 -91 -50 -91 -74 0 -8 9 -25 19 -38 l19 -24 249 0 c184 0 254 3 271 13
12 7 36 38 53 68 35 62 62 84 101 84 43 0 73 -16 134 -71 93 -85 124 -90 223
-40 33 17 56 21 103 19 35 -2 63 2 65 7 2 6 12 26 21 45 17 35 18 35 82 35 57
0 70 4 104 30 34 26 48 30 100 30 53 0 74 -7 166 -52 114 -56 150 -69 150 -55
0 5 -16 66 -35 136 -106 387 -303 779 -541 1076 -38 47 -122 138 -187 203
l-119 117 -52 -1 c-28 -1 -78 -5 -111 -9z"/>
<path d="M4170 13145 c0 0 51 -52 113 -116 61 -64 139 -153 172 -197 33 -45
65 -81 72 -82 26 -1 142 60 153 81 7 12 25 60 41 106 20 60 25 85 16 88 -7 2
-70 14 -142 26 -71 12 -196 38 -277 58 -82 20 -148 37 -148 36z"/>
<path d="M5560 13018 c-83 -13 -553 -16 -691 -5 l-107 9 -31 -94 c-17 -52 -38
-103 -46 -115 -8 -11 -45 -33 -82 -49 -37 -15 -69 -29 -71 -30 -2 -1 14 -28
35 -60 21 -33 46 -75 56 -94 11 -19 106 -123 211 -230 200 -203 326 -345 466
-523 76 -97 87 -107 129 -117 25 -6 152 -15 281 -19 259 -8 286 -14 333 -71
24 -28 27 -40 26 -93 -2 -54 1 -63 24 -83 40 -34 100 -39 178 -15 144 45 256
167 289 318 18 77 32 93 89 93 40 0 56 6 94 35 57 44 91 57 125 48 25 -6 25
-4 -17 48 -96 122 -288 333 -423 465 -215 211 -405 368 -642 532 -97 68 -101
68 -226 50z"/>
<path d="M4481 12711 c-7 -5 -10 -14 -6 -21 8 -12 75 -44 81 -38 1 2 -6 18
-18 36 -21 33 -33 38 -57 23z"/>
<path d="M14054 12706 c-17 -13 -20 -31 -24 -193 -5 -158 -8 -183 -28 -220
-36 -70 -80 -81 -134 -34 -53 46 -69 50 -214 61 l-138 11 -50 -32 c-64 -39
-103 -46 -148 -25 -67 32 -86 108 -46 190 28 58 18 70 -70 90 -206 46 -328 42
-452 -15 l-70 -32 -86 42 c-72 34 -89 39 -107 30 -69 -36 -293 -176 -336 -209
-92 -73 -127 -171 -88 -247 23 -44 21 -61 -13 -111 -16 -24 -39 -73 -51 -110
-12 -37 -33 -80 -45 -95 -28 -33 -32 -91 -9 -121 35 -47 9 -86 -58 -86 -32 0
-36 -4 -52 -47 -29 -76 -63 -120 -112 -144 -47 -23 -56 -23 -269 -3 -93 8
-156 -16 -179 -70 -8 -20 -22 -52 -30 -71 -15 -36 -22 -39 -83 -35 -71 4 -73
-9 -42 -375 26 -297 34 -340 70 -377 25 -25 35 -28 95 -28 115 0 179 -47 141
-104 -24 -38 -57 -56 -114 -63 -73 -8 -164 23 -312 108 -213 122 -277 143
-301 98 -19 -36 -2 -82 47 -129 61 -60 73 -85 79 -172 10 -119 13 -131 60
-202 29 -45 46 -83 50 -114 4 -26 20 -104 36 -173 16 -70 29 -149 29 -176 0
-63 -38 -142 -88 -179 -79 -60 -127 -112 -184 -199 -79 -119 -110 -150 -191
-191 -77 -39 -90 -59 -102 -158 -4 -33 -20 -98 -37 -144 -21 -60 -26 -88 -19
-95 14 -14 154 5 242 34 35 11 108 45 161 76 119 67 163 76 197 39 30 -32 69
-34 106 -4 41 32 55 76 55 172 0 66 6 101 26 158 30 85 48 108 81 108 30 0 70
-39 79 -77 18 -83 27 -105 46 -123 40 -37 75 -19 98 53 19 61 52 68 162 37 36
-11 52 -11 72 -2 25 11 26 14 26 106 0 187 30 248 131 261 77 10 95 25 109 88
13 65 30 83 127 131 96 48 107 47 135 -11 20 -42 28 -49 66 -58 32 -8 53 -23
83 -57 51 -60 111 -81 231 -82 86 -1 87 -1 123 34 20 19 68 74 107 122 95 118
124 137 312 203 71 25 88 37 185 128 193 183 352 299 551 405 107 57 286 132
375 157 95 27 97 34 34 101 -51 54 -52 56 -18 36 73 -44 133 -19 219 89 30 38
83 89 116 114 62 45 74 63 95 145 11 45 57 99 123 146 21 14 28 25 23 37 -8
22 -55 22 -85 1 -26 -18 -42 -11 -42 17 0 32 17 56 57 80 56 33 83 60 83 82 0
11 -27 48 -59 82 -121 126 -107 248 46 401 101 102 134 122 234 140 111 21
119 26 119 74 0 47 -15 88 -42 118 -17 17 -33 22 -69 22 -54 0 -69 15 -69 69
0 41 -26 41 -82 1 -70 -51 -95 -33 -97 71 -1 28 -7 52 -16 59 -8 6 -71 31
-140 55 -109 38 -123 45 -106 55 12 6 21 19 21 30 0 20 -7 22 -275 101 -136
39 -151 47 -197 98 -39 44 -54 49 -84 27z"/>
<path d="M4442 12678 c3 -7 13 -15 24 -17 16 -3 17 -1 5 13 -16 19 -34 21 -29
4z"/>
<path d="M4560 12615 c13 -14 26 -23 28 -20 7 7 -29 45 -41 45 -6 0 0 -11 13
-25z"/>
<path d="M4580 12540 c-8 -5 -33 -10 -56 -10 -71 0 -75 -9 -53 -125 11 -55 22
-117 25 -137 l5 -38 117 7 c144 7 146 6 148 -106 1 -82 14 -119 58 -160 37
-35 35 -17 -23 157 -72 217 -169 423 -199 422 -4 0 -14 -5 -22 -10z"/>
<path d="M4680 12479 c0 -3 17 -44 39 -90 43 -95 112 -286 136 -381 9 -35 21
-69 27 -75 7 -9 40 -13 99 -13 48 0 98 -4 111 -9 13 -5 54 -36 91 -69 64 -56
145 -107 155 -97 6 6 -126 170 -258 320 -108 123 -399 425 -400 414z"/>
<path d="M4560 12220 c-85 -9 -203 -36 -240 -55 -51 -27 -71 -62 -68 -125 1
-39 -3 -63 -15 -80 -9 -14 -17 -34 -17 -46 0 -43 20 -48 202 -45 141 2 174 0
194 -14 26 -17 33 -65 12 -83 -7 -5 -69 -12 -138 -14 -69 -2 -134 -9 -146 -15
-11 -7 -26 -30 -33 -52 -13 -45 -49 -77 -122 -109 -26 -11 -49 -25 -53 -31
-10 -16 28 -83 78 -134 45 -47 66 -95 66 -152 0 -17 34 -105 76 -195 353 -764
668 -1623 883 -2411 43 -155 131 -509 183 -734 16 -69 36 -80 81 -45 32 26 35
60 11 141 -32 105 -16 249 29 257 9 2 71 -17 137 -42 l120 -46 149 0 150 0 15
53 c31 105 104 186 199 216 26 9 39 20 43 37 9 37 58 71 120 84 117 25 132 87
84 354 -182 1005 -573 1940 -1121 2683 -60 81 -75 95 -132 122 -35 17 -92 55
-125 85 -88 79 -94 81 -204 81 -82 0 -97 -2 -93 -15 2 -8 14 -60 25 -115 59
-288 87 -714 71 -1075 -10 -217 -10 -225 9 -245 29 -31 26 -79 -6 -104 -15
-12 -34 -21 -44 -21 -33 0 -70 39 -70 74 0 35 19 59 61 75 l27 10 7 188 c15
357 -6 729 -55 1013 -35 201 -43 224 -85 261 -54 47 -75 99 -75 185 0 41 -5
75 -12 82 -13 13 -70 13 -178 2z"/>
<path d="M6981 11924 l-42 -39 72 -95 c246 -330 482 -726 691 -1160 156 -323
149 -312 187 -334 21 -12 55 -20 92 -21 45 -1 67 -8 97 -28 29 -21 50 -27 89
-27 44 0 55 -4 73 -27 12 -16 40 -35 63 -43 39 -15 42 -18 45 -57 l3 -42 91
-46 c102 -51 112 -50 123 18 9 55 20 67 60 67 25 0 47 -11 85 -44 82 -70 131
-72 209 -11 57 45 84 52 128 31 20 -9 38 -14 42 -11 3 4 6 214 6 468 0 506 -8
622 -66 968 -43 256 -44 259 -104 279 -28 10 -93 39 -145 65 -116 57 -149 57
-230 1 -38 -26 -61 -36 -77 -32 -13 3 -34 9 -47 12 -21 5 -28 0 -47 -38 -28
-56 -35 -60 -90 -52 -39 5 -59 0 -117 -25 -39 -17 -81 -31 -95 -31 -28 0 -81
34 -150 96 -55 49 -105 64 -139 42 -12 -8 -38 -41 -58 -74 -27 -46 -44 -62
-71 -71 -22 -7 -125 -13 -266 -15 -205 -3 -232 -1 -256 15 -58 38 -44 106 28
138 24 11 47 24 51 30 8 13 -32 70 -70 100 -17 13 -47 24 -76 27 -45 4 -51 2
-89 -34z"/>
<path d="M6760 11870 c-45 -34 -61 -40 -102 -40 -55 0 -68 -14 -87 -94 -19
-79 -62 -156 -118 -212 -123 -123 -316 -162 -383 -76 -18 22 -20 34 -15 77 6
46 4 54 -21 84 -45 54 -75 61 -246 61 -142 0 -265 9 -355 26 l-37 7 37 -49
c71 -93 285 -419 357 -544 370 -640 627 -1339 771 -2100 39 -205 36 -197 52
-177 19 25 58 35 95 25 44 -12 53 -4 100 96 23 47 53 94 72 109 52 44 128 31
151 -25 12 -28 15 -30 56 -25 51 5 73 21 73 52 0 12 6 28 14 34 7 6 16 29 20
51 6 36 8 39 29 31 27 -10 73 6 99 35 9 11 28 45 43 77 25 53 53 84 101 113
17 11 18 14 4 37 -8 14 -35 49 -58 78 -53 64 -52 89 7 156 30 34 41 56 46 91
13 109 57 130 127 62 31 -29 50 -40 68 -38 22 3 25 8 28 53 3 45 8 55 58 106
l55 56 -7 64 c-5 53 -3 67 10 78 21 18 20 46 -4 100 -24 52 -25 79 -4 102 14
16 9 31 -65 186 -179 374 -366 707 -560 997 -125 185 -247 348 -274 363 -41
23 -80 15 -137 -27z"/>
<path d="M9360 11814 c-14 -3 -78 -16 -143 -29 -64 -14 -140 -25 -167 -25 -38
0 -50 -4 -50 -15 0 -9 11 -70 24 -138 58 -293 85 -562 92 -937 3 -157 2 -365
-4 -462 -9 -175 -9 -178 14 -223 47 -94 40 -211 -19 -332 l-31 -63 26 -27 c21
-22 27 -40 30 -91 5 -72 25 -105 84 -140 49 -29 119 -26 187 7 50 24 63 56 32
81 -40 33 -4 138 95 285 71 104 128 165 155 165 13 0 42 -16 65 -35 50 -42 78
-44 118 -10 29 24 62 98 62 136 0 11 -65 68 -172 151 -210 161 -218 169 -218
207 0 25 7 34 39 50 76 39 82 130 11 191 -22 19 -40 40 -40 47 0 15 58 63 76
63 8 0 26 11 39 25 22 21 25 32 24 97 -1 40 -4 87 -8 103 -5 27 -11 30 -48 33
-63 5 -63 23 1 112 19 27 31 57 34 90 5 52 3 54 -79 124 -14 12 -19 29 -19 66
0 84 50 157 129 190 26 10 31 18 29 39 -3 24 -8 26 -57 31 -44 5 -58 11 -82
37 -29 33 -49 88 -49 135 0 20 -8 31 -27 42 -31 15 -115 26 -153 20z"/>
<path d="M4110 11521 c0 -5 7 -15 17 -22 15 -13 15 -12 4 9 -12 23 -21 28 -21
13z"/>
<path d="M4200 11404 c1 -5 14 -34 30 -64 30 -57 42 -44 14 16 -16 33 -44 65
-44 48z"/>
<path d="M4255 11169 c-38 -84 -135 -159 -205 -159 -27 0 -42 10 -84 55 -52
56 -74 66 -95 41 -17 -20 -16 -60 2 -127 25 -94 -3 -168 -98 -264 -68 -69
-150 -117 -201 -118 -31 -1 -43 7 -97 65 -65 68 -145 128 -171 128 -11 0 -25
-31 -47 -102 -72 -233 -75 -358 -14 -568 40 -136 104 -340 112 -353 3 -4 22
15 44 44 21 28 40 54 43 56 3 3 -8 -43 -24 -102 l-29 -106 35 -102 c174 -501
423 -1082 711 -1657 203 -406 296 -579 301 -557 5 24 -15 79 -43 122 l-24 35
27 0 c27 0 67 19 117 54 26 19 29 19 75 3 26 -9 52 -17 57 -17 6 0 18 20 27
44 18 46 38 60 103 72 65 12 91 30 99 70 9 49 57 102 100 110 46 8 77 -1 116
-35 43 -37 73 -52 91 -45 8 3 27 27 41 55 35 63 54 73 131 66 l62 -6 -43 187
c-231 1011 -602 2084 -1067 3080 l-34 73 -18 -42z"/>
<path d="M7797 10317 c-3 -8 3 -33 14 -57 23 -51 25 -103 4 -120 -12 -10 -14
-27 -9 -79 l6 -66 -56 -55 c-52 -51 -56 -57 -56 -102 0 -37 -4 -50 -19 -58
-30 -16 -37 -13 -91 35 -74 66 -94 59 -110 -39 -9 -56 -29 -94 -69 -130 -36
-33 -28 -75 29 -140 59 -68 64 -98 20 -121 -35 -18 -59 -49 -97 -125 -30 -60
-79 -100 -122 -100 -42 0 -69 -90 -77 -260 -6 -126 -5 -137 14 -160 11 -14 31
-25 48 -26 26 -1 29 -5 27 -33 -1 -25 -15 -47 -61 -94 -62 -66 -85 -102 -96
-154 -11 -50 6 -70 71 -84 53 -12 103 -45 103 -67 0 -20 -44 -64 -83 -83 -50
-25 -103 -73 -123 -111 -20 -39 -17 -78 10 -139 24 -54 24 -55 16 -262 -9
-236 -10 -240 -87 -251 -55 -7 -73 -20 -73 -53 0 -38 39 -68 115 -87 115 -29
125 -50 75 -159 -17 -38 -30 -84 -30 -106 0 -79 81 -131 225 -145 101 -10 162
-30 229 -76 65 -44 112 -52 138 -22 9 9 29 47 46 84 21 46 39 71 59 81 15 8
111 25 212 37 102 12 190 24 196 26 7 3 22 23 34 44 12 22 30 44 39 49 9 5 59
11 110 13 83 4 95 7 118 30 23 22 28 40 38 129 13 113 31 159 69 176 22 10 31
41 105 340 180 724 294 1345 352 1920 27 269 26 307 -2 327 -37 26 -80 20
-132 -20 -48 -37 -103 -52 -148 -41 -13 4 -47 27 -76 52 -52 43 -93 57 -107
35 -4 -6 -12 -32 -18 -57 -19 -74 -32 -76 -145 -18 -97 50 -97 50 -97 88 0 22
-6 41 -15 47 -20 13 -67 12 -93 -1 -21 -12 -21 -11 -4 8 22 25 22 36 -1 56
-12 11 -36 17 -68 17 -38 0 -59 6 -84 25 -25 19 -46 25 -82 25 -27 0 -65 7
-85 15 -19 8 -37 15 -39 15 -1 0 18 -48 43 -107 118 -282 271 -700 364 -1000
29 -95 58 -173 65 -173 6 0 23 -9 38 -21 19 -15 26 -30 26 -54 0 -36 -36 -75
-70 -75 -10 0 -29 9 -44 21 -34 27 -36 77 -2 108 l24 22 -35 112 c-63 203
-154 469 -230 670 -84 225 -200 506 -215 525 -14 16 -25 15 -31 -1z"/>
<path d="M3241 10056 c-3 -30 52 -332 62 -338 18 -12 25 -10 35 10 6 12 -7 66
-44 177 -29 88 -53 156 -53 151z"/>
<path d="M9100 9980 c0 -8 -7 -82 -15 -165 -20 -208 -20 -213 18 -135 33 69
45 152 33 234 -7 44 -35 96 -36 66z"/>
<path d="M13094 9731 c-117 -42 -161 -75 -248 -186 -37 -46 -85 -100 -108
-120 l-41 -38 -96 6 c-136 8 -167 19 -227 83 -32 34 -59 54 -73 54 -37 0 -61
19 -81 66 -11 24 -24 44 -30 44 -19 0 -165 -77 -182 -96 -9 -11 -19 -37 -23
-59 -4 -22 -13 -50 -21 -62 -14 -23 -69 -43 -116 -43 -70 0 -108 -89 -108
-257 0 -81 -2 -94 -19 -103 -28 -15 -75 -12 -132 6 -64 21 -92 10 -109 -43
-17 -51 -38 -73 -71 -73 -35 0 -76 47 -84 98 -9 58 -32 101 -61 114 -23 11
-29 10 -45 -10 -38 -47 -61 -133 -68 -254 -8 -130 -20 -155 -88 -184 -37 -16
-58 -11 -94 23 -24 22 -31 23 -64 14 -20 -5 -67 -28 -104 -50 -151 -92 -269
-122 -481 -123 -156 -1 -194 -10 -229 -54 -15 -19 -20 -21 -25 -9 -9 25 -62
18 -85 -11 -35 -45 -24 -92 29 -119 18 -9 32 -26 36 -43 3 -15 10 -37 15 -50
10 -24 63 -52 101 -52 73 0 147 -45 129 -78 -5 -10 -77 -49 -160 -86 -145 -66
-152 -70 -181 -117 -46 -75 -81 -83 -225 -48 -108 25 -149 16 -171 -38 -22
-51 -2 -78 64 -87 28 -3 56 -13 62 -22 21 -24 -3 -59 -53 -79 -66 -25 -109
-10 -195 70 -38 35 -82 69 -96 75 -47 18 -90 12 -116 -15 -25 -26 -25 -51 1
-167 12 -54 12 -60 -7 -85 -29 -39 -83 -41 -178 -9 -81 28 -97 27 -180 -18
-32 -17 -65 -26 -95 -27 -25 0 -63 -3 -85 -7 l-38 -7 -83 -290 c-45 -159 -117
-402 -159 -538 -72 -232 -76 -251 -64 -283 10 -30 10 -40 -3 -62 -45 -81 -164
-27 -129 58 12 29 38 43 85 44 16 1 28 28 72 171 63 199 202 670 237 802 23
85 23 92 6 83 -25 -14 -50 -82 -50 -141 0 -71 -18 -134 -46 -160 -21 -20 -39
-24 -122 -29 -53 -3 -102 -9 -109 -13 -7 -4 -22 -26 -34 -47 -28 -49 -37 -51
-249 -75 -207 -24 -211 -26 -257 -122 -57 -118 -91 -128 -193 -57 -75 52 -106
62 -217 75 -53 6 -113 17 -132 25 -26 11 -42 12 -75 3 -30 -8 -64 -8 -133 1
-138 19 -212 -2 -239 -66 -16 -37 -8 -88 22 -146 13 -25 13 -28 -1 -28 -9 0
-27 -11 -40 -25 -22 -21 -25 -33 -25 -90 0 -60 4 -73 47 -147 58 -102 68 -164
33 -226 -20 -36 -55 -62 -101 -76 -13 -3 -19 -30 -28 -133 -7 -70 -24 -216
-37 -323 -13 -107 -24 -205 -24 -217 0 -38 36 -28 82 23 80 86 181 113 233 64
44 -41 69 -163 46 -223 -30 -78 -112 -89 -237 -32 -65 30 -134 46 -134 31 0
-3 12 -27 26 -53 23 -44 25 -55 18 -120 -5 -59 -3 -78 10 -98 24 -37 50 -31
92 21 61 74 125 94 192 60 30 -15 52 -61 52 -108 0 -10 11 -25 25 -34 32 -21
100 -14 182 18 49 20 65 33 109 92 65 87 77 96 130 96 59 0 102 -50 139 -160
15 -45 40 -96 55 -113 23 -26 35 -31 95 -36 90 -8 104 -26 112 -141 8 -106 24
-128 105 -139 102 -14 131 -70 59 -115 -51 -33 -78 -72 -92 -134 -12 -60 -27
-74 -82 -81 -38 -5 -45 -11 -69 -56 -15 -27 -40 -60 -55 -72 -36 -29 -26 -48
49 -87 68 -34 103 -30 159 21 39 36 45 49 88 210 20 72 89 113 196 113 28 0
101 -7 163 -16 127 -18 167 -11 178 32 8 32 41 54 81 54 18 0 44 5 58 12 27
12 29 25 10 85 -9 27 25 63 60 63 14 0 52 -11 85 -25 126 -53 240 -24 326 84
29 35 69 71 97 86 52 29 58 45 25 67 -26 17 -27 67 -3 104 23 35 74 64 113 64
44 0 48 17 16 79 -37 75 -49 171 -36 284 6 51 17 136 23 191 17 137 4 199 -72
353 -36 73 -64 144 -69 177 -16 102 17 226 96 359 98 163 192 277 279 337 79
54 214 87 243 58 7 -7 12 -33 12 -60 0 -37 4 -50 19 -58 56 -30 112 8 146 97
53 142 168 334 241 405 60 58 93 67 235 66 105 0 137 4 210 26 123 36 288 103
327 133 98 74 134 233 77 343 -16 30 -15 31 31 84 108 125 302 274 510 392
216 122 225 130 408 367 74 95 166 175 292 252 188 115 280 182 362 263 78 78
136 151 394 500 65 87 78 123 46 121 -7 0 -36 -9 -64 -18z"/>
<path d="M3366 9568 c-44 -149 -58 -292 -36 -367 5 -19 28 -64 50 -101 46 -77
49 -98 16 -137 -22 -27 -23 -30 -10 -73 8 -25 30 -108 49 -185 20 -77 64 -221
98 -320 l62 -180 6 -340 c7 -372 26 -536 72 -623 34 -66 290 -382 309 -382 37
0 109 -40 126 -70 9 -16 23 -30 29 -30 7 0 37 22 67 49 77 70 92 72 172 21 36
-23 54 -7 54 49 0 45 3 52 37 79 l38 30 -23 47 c-26 54 -22 82 14 91 13 3 24
8 24 11 0 2 -20 39 -44 81 -358 626 -774 1529 -1026 2228 -34 93 -63 170 -65
172 -2 2 -11 -20 -19 -50z"/>
<path d="M9060 9576 c0 -38 -54 -413 -90 -621 -68 -400 -138 -730 -250 -1177
-38 -152 -71 -282 -72 -289 -2 -8 17 -11 66 -10 73 3 91 7 174 48 59 29 98 27
173 -7 55 -25 111 -26 131 -2 25 29 28 49 13 107 -8 31 -15 75 -15 99 0 73 55
105 143 83 15 -4 60 -37 99 -73 95 -87 142 -103 207 -69 58 29 46 58 -29 69
-24 4 -52 14 -62 23 -34 31 -15 104 33 129 38 19 75 18 170 -7 111 -29 143
-20 187 48 32 49 39 54 184 120 83 37 153 74 156 82 6 15 -22 40 -53 46 -11 2
-47 9 -79 16 -67 13 -106 44 -106 84 0 14 -9 33 -20 43 -68 58 -70 61 -70 100
0 39 24 71 63 85 21 8 21 31 2 122 -21 100 -58 169 -99 189 -19 9 -41 16 -48
16 -29 0 -48 35 -48 87 0 58 -23 93 -147 222 -72 75 -89 82 -152 60 -40 -14
-53 -4 -88 68 -19 43 -29 53 -42 47 -9 -4 -45 -9 -81 -11 -54 -3 -72 0 -104
19 -59 35 -79 68 -84 140 -4 51 -10 69 -33 96 -18 20 -29 27 -29 18z"/>
<path d="M6887 9050 c-19 -16 -47 -58 -62 -92 -15 -35 -37 -76 -48 -91 -19
-27 -23 -29 -73 -22 -46 5 -56 3 -74 -15 -26 -26 -26 -44 13 -340 66 -502 91
-1115 68 -1660 -5 -102 -8 -186 -7 -187 1 -1 12 6 25 16 24 18 24 19 7 66 -31
91 -12 144 61 177 41 18 58 19 179 13 152 -8 151 -9 113 65 -25 48 -22 78 21
168 47 100 42 111 -62 133 -76 16 -108 35 -124 75 -23 54 9 94 74 94 16 0 39
8 51 18 20 16 21 30 28 229 6 199 5 213 -14 245 -11 18 -23 45 -26 59 -16 63
46 160 127 201 76 38 105 80 74 106 -7 6 -40 17 -73 26 -33 8 -65 23 -72 33
-35 46 0 136 87 227 33 34 60 70 60 79 0 10 -15 23 -34 31 -19 8 -39 23 -45
34 -6 12 -11 74 -11 141 0 128 -3 135 -51 119 -35 -12 -75 5 -82 35 -7 24 -43
47 -77 47 -11 0 -35 -13 -53 -30z"/>
<path d="M6587 8640 c-8 -36 -51 -65 -113 -75 -55 -8 -107 -49 -102 -80 4 -18
-2 -24 -36 -33 -99 -27 -183 -112 -208 -210 -17 -69 -34 -75 -200 -70 l-143 4
-118 49 c-108 43 -120 46 -134 32 -24 -24 -29 -148 -9 -223 24 -94 21 -138
-10 -163 -15 -12 -37 -21 -50 -21 -13 0 -24 -2 -24 -4 0 -2 20 -105 45 -228
75 -375 144 -810 191 -1195 10 -79 21 -143 26 -143 20 0 48 -42 48 -73 0 -42
-29 -70 -70 -70 -41 0 -70 28 -70 70 0 35 29 73 55 73 11 0 14 7 10 23 -2 12
-9 67 -15 122 -42 377 -208 1354 -241 1416 -12 23 -107 36 -138 20 -11 -7 -30
-29 -41 -50 -41 -82 -74 -90 -137 -36 -60 51 -89 59 -138 41 -45 -18 -58 -35
-75 -95 -12 -46 -30 -58 -132 -86 -53 -14 -57 -18 -73 -59 -10 -25 -24 -47
-32 -50 -8 -3 -35 3 -60 15 l-46 21 -26 -22 c-14 -11 -43 -28 -63 -37 -42 -18
-48 -40 -23 -83 8 -14 14 -49 15 -78 0 -50 3 -55 50 -101 44 -42 50 -54 48
-83 -1 -28 19 -72 107 -224 409 -712 942 -1523 1548 -2358 147 -202 183 -245
189 -230 12 29 81 424 133 757 34 220 43 302 35 316 -13 26 -13 77 1 139 16
69 7 98 -42 122 -22 12 -49 35 -59 53 -31 49 -25 92 20 168 22 37 40 80 40 96
0 15 -14 48 -30 73 -35 53 -40 104 -11 120 29 15 34 13 82 -29 24 -21 54 -41
65 -45 20 -6 22 -2 28 51 7 68 23 320 24 378 0 22 5 103 11 180 13 184 14 840
1 1080 -18 321 -74 865 -90 865 -4 0 -10 -13 -13 -30z"/>
<path d="M4506 7197 c19 -39 36 -50 27 -18 -3 11 -14 28 -25 38 -20 18 -20 18
-2 -20z"/>
<path d="M3705 7120 c34 -95 135 -290 151 -290 28 0 84 31 77 43 -6 10 -235
301 -250 317 -2 2 8 -29 22 -70z"/>
<path d="M4493 7113 c-17 -6 -16 -45 2 -69 24 -32 18 -65 -20 -100 -30 -27
-35 -38 -35 -77 0 -70 -27 -80 -92 -35 -30 21 -68 24 -86 6 -25 -25 -13 -60
39 -111 60 -59 66 -73 79 -183 6 -56 17 -97 30 -120 25 -39 21 -59 -20 -119
-16 -23 -34 -61 -40 -85 -21 -77 -65 -119 -142 -135 -18 -3 -28 -12 -28 -24 0
-21 64 -114 127 -186 67 -76 99 -153 148 -352 25 -101 75 -265 114 -370 105
-289 108 -301 140 -708 6 -66 15 -143 22 -170 l11 -50 151 -80 c249 -132 307
-186 327 -310 5 -31 17 -70 28 -86 17 -28 209 -183 302 -245 66 -44 95 -54
155 -54 61 0 105 -13 105 -32 0 -7 5 -29 10 -49 12 -41 34 -54 114 -63 36 -4
62 -16 94 -41 37 -29 52 -34 84 -31 21 2 40 5 42 7 12 12 226 1000 226 1043 0
13 -33 68 -77 127 -667 905 -1220 1747 -1732 2637 -40 69 -50 77 -78 65z"/>
<path d="M3887 6820 l-26 -21 24 -57 c13 -31 48 -120 76 -197 28 -77 83 -209
121 -292 l70 -153 35 0 c76 0 131 47 153 130 6 24 25 63 41 86 34 50 36 67 10
117 -10 20 -22 71 -26 114 -9 99 -14 111 -72 169 -26 27 -53 58 -59 69 -11 19
-12 19 -43 -8 -18 -15 -40 -27 -50 -27 -9 0 -27 -14 -40 -31 -19 -25 -28 -30
-58 -27 -50 4 -82 46 -66 87 6 18 7 35 1 45 -12 22 -60 20 -91 -4z"/>
<path d="M3995 6830 c4 -6 11 -8 16 -5 14 9 11 15 -7 15 -8 0 -12 -5 -9 -10z"/>
<path d="M6687 6383 c-20 -238 -20 -273 -6 -273 33 0 77 40 94 84 21 55 15 93
-27 173 -54 103 -54 103 -61 16z"/>
<path d="M6477 6173 c-15 -14 -6 -48 25 -96 41 -65 40 -99 -7 -176 -20 -33
-38 -75 -41 -93 -7 -44 24 -91 75 -118 46 -23 57 -49 47 -116 -17 -124 -18
-139 -8 -129 9 9 36 212 62 475 6 58 12 120 15 138 3 28 0 34 -22 43 -15 5
-44 25 -65 44 -36 33 -66 43 -81 28z"/>
<path d="M6760 5500 c-19 -10 -55 -39 -79 -64 -32 -34 -51 -46 -72 -46 -24 0
-29 -4 -29 -24 0 -13 -3 -31 -6 -40 -5 -12 0 -16 21 -16 15 0 70 -18 121 -40
52 -22 108 -40 124 -40 97 0 130 82 88 217 -20 69 -96 92 -168 53z"/>
<path d="M6537 5077 c-30 -192 -110 -657 -126 -729 l-10 -43 131 -175 c72 -96
226 -298 341 -447 226 -295 219 -289 292 -259 36 15 75 67 75 99 0 31 -29 76
-60 92 -16 8 -54 15 -84 15 -48 0 -58 3 -72 24 -14 23 -14 28 1 61 10 19 30
45 46 56 51 36 63 71 48 143 -21 110 -4 139 88 146 l68 5 21 44 c44 91 84 100
205 45 140 -63 177 -57 224 36 27 54 49 70 93 70 37 0 46 12 62 78 12 53 51
103 110 143 20 13 21 18 11 37 -14 27 -49 42 -96 42 -69 0 -103 60 -105 183 0
70 -30 97 -106 97 -50 0 -59 3 -88 33 -18 17 -40 53 -49 80 -9 26 -24 66 -32
90 -18 50 -56 94 -90 103 -48 12 -74 -4 -131 -82 -66 -90 -125 -123 -230 -132
-80 -6 -110 11 -119 65 -11 64 -16 73 -45 88 -62 32 -101 18 -176 -61 -27 -30
-56 -54 -63 -54 -6 0 -23 11 -36 25 -23 22 -25 32 -25 116 0 68 -4 98 -17 120
-10 16 -20 29 -23 29 -3 0 -18 -82 -33 -183z"/>
<path d="M9269 4746 c-51 -18 -75 -37 -127 -102 -89 -110 -199 -136 -337 -81
-59 24 -75 27 -99 17 -25 -9 -28 -14 -23 -43 3 -17 8 -39 12 -48 7 -20 -18
-47 -48 -53 -87 -16 -102 -22 -114 -46 -32 -64 -61 -70 -243 -44 -202 29 -285
-7 -309 -131 -17 -83 -38 -135 -69 -168 -75 -80 -155 -76 -254 12 -25 22 -52
41 -60 41 -7 0 -46 16 -87 35 -48 23 -87 35 -115 35 -48 0 -65 -14 -90 -73
-17 -41 -52 -61 -92 -51 -71 18 -102 -27 -83 -121 16 -81 7 -109 -52 -166 -76
-74 -66 -119 28 -119 30 0 67 -7 82 -14 103 -54 69 -200 -52 -225 -15 -3 -28
-10 -27 -16 0 -5 87 -119 193 -253 105 -134 197 -250 204 -259 7 -10 19 -12
33 -8 31 10 77 -13 88 -43 30 -88 -92 -140 -130 -56 -8 18 -9 33 -2 52 10 26
-2 43 -204 300 l-215 272 -31 -17 c-18 -11 -39 -36 -51 -60 -25 -54 -49 -63
-197 -70 -94 -5 -130 -2 -186 12 -66 17 -72 17 -96 1 -15 -9 -26 -26 -26 -39
0 -61 -63 -97 -170 -97 -77 0 -122 16 -141 51 -6 11 -13 18 -16 15 -13 -12
-60 -237 -51 -242 5 -3 13 -17 19 -31 10 -28 0 -53 -39 -95 -21 -23 -23 -30
-12 -43 9 -11 34 -15 101 -15 101 0 131 -9 155 -45 14 -21 14 -30 4 -55 -7
-17 -26 -40 -41 -51 -70 -50 -56 -94 41 -130 78 -28 100 -57 100 -134 0 -31
-7 -85 -17 -119 -21 -79 -22 -182 -1 -221 41 -76 102 -103 179 -78 99 32 133
-5 125 -133 -4 -68 -2 -87 15 -118 25 -48 24 -72 -8 -142 -18 -40 -27 -76 -27
-111 0 -71 24 -102 98 -128 101 -35 100 -65 -7 -285 -66 -135 -81 -159 -119
-185 -24 -17 -44 -39 -46 -49 -2 -11 12 -35 36 -60 79 -83 87 -109 47 -162
-31 -40 -31 -47 -3 -92 26 -42 28 -113 5 -158 -8 -16 -34 -50 -56 -76 l-42
-47 21 -21 c33 -33 150 -105 202 -125 88 -33 130 -22 370 99 318 161 318 161
327 360 6 111 10 138 31 180 64 127 251 234 610 351 109 35 120 45 91 81 -27
35 -43 93 -35 135 9 52 98 229 138 276 20 23 58 55 86 72 65 40 78 62 97 164
19 107 40 142 90 156 21 6 121 11 223 11 l185 0 -1 413 c0 445 0 445 -59 637
-39 125 -44 231 -15 321 20 62 180 342 329 574 44 69 68 157 86 314 9 73 29
187 46 252 28 108 30 124 19 169 -15 63 -63 138 -96 150 -33 13 -51 12 -95 -4z"/>
<path d="M6396 4259 c-3 -8 -26 -115 -51 -239 -25 -124 -75 -354 -111 -512
-63 -278 -65 -288 -49 -318 23 -45 74 -63 158 -57 81 5 117 27 130 78 18 71
52 82 157 54 65 -17 149 -19 240 -5 93 15 96 16 113 60 10 25 28 47 50 60 l36
21 -168 217 c-92 119 -236 309 -320 422 -181 242 -179 239 -185 219z"/>
<path d="M4780 4166 c-14 -18 -21 -5 235 -451 367 -639 475 -877 600 -1315 73
-256 105 -331 222 -524 134 -223 202 -395 206 -524 2 -44 0 -47 -36 -67 -50
-26 -61 -47 -54 -103 9 -83 197 -429 348 -640 127 -177 273 -342 302 -342 20
0 85 74 103 116 20 47 17 104 -6 139 -21 32 -26 80 -10 90 6 3 17 20 25 36 19
36 11 55 -52 120 -58 60 -57 90 5 134 37 26 53 50 116 181 41 83 77 165 81
182 9 42 -9 70 -49 77 -115 22 -155 121 -100 250 38 88 39 100 14 140 -20 33
-22 44 -16 114 12 129 -17 165 -105 136 -62 -21 -107 -14 -150 22 -69 59 -84
145 -49 291 37 154 21 207 -72 237 -57 18 -98 54 -98 86 0 12 20 40 45 65 50
48 57 80 24 110 -18 16 -37 19 -119 19 -65 0 -102 4 -113 13 -8 7 -17 9 -20 5
-2 -4 -28 -100 -57 -212 -43 -165 -51 -207 -42 -222 31 -49 -5 -119 -59 -119
-66 0 -94 89 -42 130 17 13 37 20 50 17 27 -5 23 -18 113 336 67 263 68 266
15 267 -37 0 -96 21 -116 41 -41 41 -14 92 66 124 48 20 85 53 85 75 0 28 -90
87 -145 94 -94 13 -118 33 -127 106 -3 24 -7 25 -78 32 -41 3 -92 13 -112 22
-36 16 -286 198 -340 248 -35 34 -54 73 -62 133 -16 110 -85 177 -295 284
-100 51 -121 58 -131 47z"/>
<path d="M6087 3213 c-4 -3 -7 -14 -7 -23 0 -23 -36 -54 -90 -77 -112 -50 -99
-117 27 -137 23 -3 48 -8 56 -12 11 -4 21 23 46 120 17 69 31 128 31 131 0 7
-55 6 -63 -2z"/>
<path d="M6095 2918 c-11 -35 -24 -92 -21 -95 8 -9 46 51 46 73 0 26 -18 42
-25 22z"/>
</g>
</svg>
