<svg version="1.2" xmlns="http://www.w3.org/2000/svg" viewBox="0 0 468 468" width="468" height="468"><defs><clipPath clipPathUnits="userSpaceOnUse" id="cp1"><path d="m-902-117h1728v864h-1728z"/></clipPath></defs><style>.a{fill:#ff621f}.b{fill:#42454a}.c{fill:#ff621f;stroke:#fff}.d{fill:#fff;stroke:#fff}.e{fill:#fff}</style><g clip-path="url(#cp1)"><path fill-rule="evenodd" class="a" d="m163.5 263.1v12.7h-4.4v-28.4h7q3.1 0 4.6 0.4 1.4 0.3 2.5 1.1 1.4 1 2.1 2.6 0.8 1.7 0.8 3.7 0 2-0.8 3.8-0.7 1.7-2.1 2.6-1.1 0.8-2.5 1.1-1.5 0.4-4.6 0.4zm0.3-3.8h1.2q3.8 0 5.1-0.8 1.3-0.9 1.3-3 0-2.2-1.4-3.2-1.4-0.9-5-0.9h-1.2zm18.6-1.9v10.4q0 2.7 1.1 3.8 1.1 1.2 3.6 1.2 2.4 0 3.5-1.2 1.1-1.1 1.1-3.8v-10.4h4.2v9.1q0 5.3-2.1 7.7-2.1 2.4-6.7 2.4-4.7 0-6.8-2.4-2.1-2.4-2.1-7.7v-9.1zm21.7 18.4h-4.2v-18.4h4v3q1.2-1.9 2.8-2.8 1.6-0.8 3.8-0.8 2.2 0 3.6 0.9 1.4 0.9 2.1 2.7 1.5-1.9 3.1-2.8 1.7-0.8 3.7-0.8 1.9 0 3.2 0.6 1.4 0.7 2.1 2 0.4 0.6 0.5 1.4 0.2 0.8 0.2 2.4v12.6h-4.2v-9.4q0-3.7-0.8-4.9-0.8-1.2-2.8-1.2-2.5 0-3.5 1.6-1.1 1.6-1.1 5.5v8.4h-4.2v-9.4q0-3.4-0.8-4.8-0.9-1.3-2.9-1.3-1.2 0-2.2 0.6-1.1 0.6-1.7 1.5-0.4 0.7-0.5 1.6-0.2 0.9-0.2 3.4zm46.2 0h-4.2v-2.3q-1.2 1.5-2.7 2.3-1.5 0.8-3.4 0.8-3.9 0-6.1-2.7-2.3-2.6-2.3-7.3 0-4.4 2.3-7.1 2.3-2.7 6-2.7 2.2 0 3.8 1 1.6 0.9 2.4 2.7v-3h4.2zm-4.1-9.3q0-2.8-1.3-4.4-1.4-1.6-3.8-1.6-2.3 0-3.7 1.6-1.4 1.7-1.4 4.6 0 2.9 1.3 4.5 1.4 1.6 3.8 1.6 2.2 0 3.7-1.7 1.4-1.8 1.4-4.6z"/><path class="b" d="m217.4 218.8c6.1-6.1 18.2-3.9 26.9 4.8 8.8 8.8 11 20.9 4.9 27-6.1 6.1-18.2 3.9-27-4.8-8.7-8.8-10.9-20.9-4.8-27z"/><path class="c" d="m225.2 225.6c3.3-3.3 9.8-2.1 14.5 2.6 4.8 4.8 5.9 11.3 2.6 14.6-0.7 0.7-1.5 1.2-2.5 1.5 1.1-3.5-0.4-8.3-4.1-12-3.7-3.7-8.5-5.2-12-4.1 0 0 0-0.1 0 0 0.3-1 0.7-1.8 1.5-2.6z"/><path class="d" d="m239.8 244.3c-3.5 1.1-8.3-0.4-12-4.1-3.7-3.7-5.2-8.5-4.1-12 3.5-1.1 8.3 0.4 12 4.1 3.7 3.7 5.2 8.5 4.1 12z"/><path fill-rule="evenodd" class="e" d="m224.8 225.2c1.8-1.8 4.4-2.3 7.2-1.8 2.8 0.5 5.7 2 8.1 4.4 2.5 2.5 4 5.4 4.5 8.2 0.5 2.8-0.1 5.4-1.8 7.2-1.8 1.8-4.5 2.4-7.3 1.9q-1.4-0.3-2.7-0.9l10.1 10.2-0.9 0.8-14.2-14.2q-0.2-0.2-0.4-0.4-0.2-0.2-0.4-0.5l-0.4-0.3h0.1c-2.1-2.3-3.3-4.9-3.8-7.3-0.5-2.8 0.1-5.5 1.9-7.3zm7-0.7c-2.4-0.4-4.7 0-6.2 1.5-1.5 1.5-2 3.8-1.6 6.3 0.4 2.2 1.6 4.6 3.5 6.7l1.8 1.8c2 1.7 4.3 2.8 6.4 3.1 2.5 0.5 4.7 0 6.2-1.5 1.6-1.5 2-3.8 1.6-6.2-0.5-2.6-1.9-5.3-4.2-7.5-2.2-2.3-5-3.8-7.5-4.2z"/><path fill-rule="evenodd" class="b" d="m158.4 282.8h0.8q0 0.5 0.3 0.8 0.2 0.3 0.7 0.3 0.4 0 0.7-0.3 0.3-0.3 0.3-0.8 0-0.4-0.2-0.6-0.2-0.3-0.9-0.5 0 0-0.1 0-0.8-0.2-1.1-0.7-0.2-0.2-0.3-0.4 0-0.3 0-0.5 0-0.8 0.4-1.3 0.5-0.5 1.3-0.5 0.7 0 1.1 0.4 0.5 0.5 0.5 1.2h-0.8q-0.1-0.3-0.3-0.6-0.2-0.2-0.6-0.2-0.3 0-0.6 0.3-0.2 0.2-0.2 0.6 0 0.2 0.1 0.3 0 0.1 0.1 0.2 0.2 0.2 0.8 0.4 0.2 0.1 0.4 0.1 0.6 0.3 0.9 0.7 0.3 0.4 0.3 1 0 1-0.5 1.5-0.5 0.6-1.3 0.6-0.8 0-1.3-0.6-0.5-0.5-0.5-1.4zm8.9 1.8h-3.2v-6.2h3.2v0.8h-2.3v1.9h2.3v0.8h-2.3v1.9h2.3zm5.3 0h-3v-6.3h0.9v5.4h2.1zm1.9 0v-6.2h3v0.8h-2.1v1.9h2.1v0.8h-2.1v2.7zm8.7-1.8l-0.7 1.8h-0.9l2.4-6.2h0.9l2.4 6.2h-1l-0.7-1.8zm2.1-0.9l-0.9-2.3-0.9 2.3zm5.3 2.7h-1.8v-6.2h2.1q1.4 0 2.2 0.8 0.9 0.9 0.9 2.3 0 0.8-0.3 1.5-0.4 0.6-1 1.1-0.4 0.3-0.9 0.4-0.4 0.1-1.2 0.1zm-0.9-0.8h1.1q1.1 0 1.7-0.6 0.6-0.6 0.6-1.7 0-1.1-0.7-1.7-0.6-0.6-1.7-0.6h-1zm7.2 0.9h-0.9v-6.3h0.9v2.7h2.6v-2.7h0.9v6.3h-0.9v-2.7h-2.6zm9 0h-3.3v-6.3h3.3v0.9h-2.4v1.8h2.4v0.8h-2.4v1.9h2.4zm2-1.8h0.8q0 0.5 0.2 0.8 0.3 0.3 0.7 0.3 0.5 0 0.8-0.3 0.3-0.3 0.3-0.8 0-0.4-0.2-0.6-0.3-0.3-0.9-0.5 0 0-0.1 0-0.8-0.2-1.1-0.7-0.2-0.2-0.3-0.4-0.1-0.3-0.1-0.6 0-0.8 0.5-1.2 0.5-0.5 1.3-0.5 0.7 0 1.1 0.4 0.4 0.4 0.5 1.2h-0.9q0-0.4-0.2-0.6-0.2-0.2-0.6-0.2-0.3 0-0.6 0.2-0.2 0.3-0.2 0.7 0 0.1 0 0.3 0.1 0.1 0.2 0.2 0.1 0.2 0.7 0.4 0.3 0 0.5 0.1 0.6 0.2 0.9 0.7 0.3 0.4 0.3 1 0 0.9-0.5 1.5-0.5 0.5-1.3 0.5-0.8 0-1.3-0.5-0.5-0.5-0.5-1.4zm6.6 1.8h-0.9v-6.2h0.9zm4.4 0h-0.5l-2.4-6.3h1l1.7 4.7 1.7-4.7h0.9zm7.2 0h-3.2v-6.2h3.2v0.8h-2.3v1.9h2.3v0.8h-2.3v1.9h2.3zm6.4 0h-0.9v-5.4h-1.1v-0.9h3.2v0.9h-1.2zm3.4-1.8l-0.7 1.8h-1l2.5-6.2h0.8l2.5 6.2h-1l-0.7-1.8zm2.1-0.9l-0.9-2.4-0.9 2.4zm4.4 2.7h-0.8v-6.2h1.4q0.6 0 0.9 0 0.4 0.1 0.6 0.2 0.4 0.2 0.6 0.7 0.2 0.4 0.2 0.9 0 0.8-0.5 1.4-0.6 0.5-1.6 0.5h-0.8zm0-3.4h0.7q0.7 0 1-0.2 0.3-0.2 0.3-0.8 0-0.5-0.3-0.8-0.3-0.2-1-0.2h-0.7zm8.1 3.3h-3.2v-6.2h3.2v0.8h-2.3v1.9h2.3v0.8h-2.3v1.9h2.3zm5.1-33.7c0.7 0 1.3 0.3 1.7 0.7 0.5 0.5 0.7 1.1 0.7 1.8 0 0.7-0.2 1.3-0.7 1.7-0.4 0.5-1 0.8-1.7 0.8-0.7 0-1.3-0.3-1.8-0.8-0.4-0.4-0.7-1-0.7-1.7 0-0.7 0.3-1.3 0.7-1.8 0.5-0.4 1.1-0.7 1.8-0.7zm1.4 1.1c-0.4-0.4-0.9-0.6-1.4-0.6-0.6 0-1.1 0.2-1.4 0.6-0.4 0.3-0.6 0.8-0.6 1.4 0 0.6 0.2 1.1 0.6 1.4 0.3 0.4 0.8 0.6 1.4 0.6 0.5 0 1-0.2 1.4-0.6 0.4-0.3 0.6-0.8 0.6-1.4 0-0.6-0.2-1.1-0.6-1.4zm-0.2 0.6l-0.4 0.3q-0.3-0.4-0.7-0.4-0.4 0-0.6 0.3-0.3 0.2-0.3 0.6 0 0.2 0.1 0.4 0.1 0.2 0.3 0.3 0.2 0.2 0.5 0.2 0.2 0 0.3-0.1 0.2-0.1 0.4-0.3l0.4 0.3q-0.3 0.3-0.6 0.4-0.2 0.1-0.5 0.1-0.6 0-1-0.4-0.4-0.3-0.4-0.9 0-0.4 0.2-0.7 0.2-0.3 0.5-0.5 0.3-0.1 0.7-0.1 0.3 0 0.6 0.1 0.3 0.1 0.5 0.4z"/></g></svg>