<svg version="1.2" xmlns="http://www.w3.org/2000/svg" viewBox="0 0 134 38" width="134" height="38"><defs><clipPath clipPathUnits="userSpaceOnUse" id="cp1"><path d="m-1195-364h1728v864h-1728z"/></clipPath></defs><style>.a{fill:#ff2e17}.b{fill:#2c2e35}.c{fill:#fff}</style><g clip-path="url(#cp1)"><path class="a" d="m3.7 4.8h84.2l-15.2 24.1h-69c-1.8 0-3.3-1.5-3.3-3.4v-17.4c0-1.8 1.5-3.3 3.3-3.3z"/><path class="b" d="m85.2 11.1h43.6c1.8 0 3.3 1.5 3.3 3.3v17.4c0 1.8-1.5 3.3-3.3 3.3h-58.8z"/><path fill-rule="evenodd" class="c" d="m15.8 18.9q0.6 0.6 0.9 1.3 0.3 0.7 0.3 1.6 0 1.6-1.2 2.8-0.5 0.6-1.3 0.9-0.7 0.3-1.5 0.3h-6.2q-0.4 0-0.7-0.1-0.3-0.1-0.5-0.3-0.2-0.3-0.4-0.6-0.1-0.3-0.1-0.6 0-0.4 0.1-0.7 0.2-0.3 0.4-0.5 0.2-0.2 0.5-0.4 0.3-0.1 0.7-0.1h6.2q0 0 0.1 0 0.1 0 0.1 0 0.2-0.1 0.3-0.2h0.1q0-0.1 0-0.2 0.1-0.1 0.1-0.1 0-0.1 0-0.2 0-0.1-0.1-0.3 0-0.1-0.1-0.3-0.8-0.6-1.6-1.4-1.1-0.8-1.7-1.4-0.7-0.6-1.7-1.5-0.8-0.7-1.6-1.4v-0.1q-0.7-0.6-1-1.3-0.3-0.7-0.3-1.6 0-0.8 0.3-1.6 0.2-0.3 0.4-0.6 0.2-0.4 0.5-0.6 0.5-0.6 1.3-0.9 0.7-0.3 1.6-0.3h5.4q0.3 0 0.6 0.1 0.3 0.1 0.6 0.3 0.2 0.2 0.3 0.5 0.2 0.3 0.2 0.7 0 0.4-0.2 0.7-0.1 0.3-0.3 0.5v0.1q-0.3 0.2-0.6 0.3-0.3 0.1-0.6 0.1h-5.4q-0.4 0-0.6 0.2-0.1 0.1-0.1 0.2 0 0.2 0 0.3 0 0.2 0 0.4 0 0 0 0l0.1 0.1q0 0 0.4 0.3l1.3 1.2q0.8 0.7 2.1 1.8 1 0.9 2.9 2.6zm20.7-10.4q0.6 0 1.1 0.1 0.6 0.1 1.2 0.4 0.5 0.2 1 0.5 0.4 0.3 0.8 0.7 0.4 0.4 0.8 0.9 0.3 0.5 0.5 1 0.3 0.5 0.4 1.1 0.1 0.6 0.1 1.2v9.8q0 0.3-0.1 0.6-0.1 0.3-0.4 0.6-0.2 0.2-0.5 0.3-0.3 0.1-0.7 0.1-0.3 0-0.6-0.1-0.3-0.1-0.6-0.3-0.2-0.3-0.3-0.6-0.1-0.3-0.1-0.6v-9.8q0-0.3-0.1-0.5-0.1-0.3-0.2-0.5-0.1-0.2-0.2-0.4-0.1-0.2-0.3-0.4-0.2-0.2-0.4-0.3-0.2-0.2-0.4-0.3-0.2-0.1-0.5-0.1-0.2-0.1-0.5-0.1h-1.3q-0.3 0-0.5 0.1-0.3 0-0.5 0.1-0.5 0.2-0.8 0.6-0.3 0.3-0.5 0.8-0.1 0.2-0.2 0.5 0 0.2 0 0.5v9.8q0 0.3-0.2 0.6-0.1 0.4-0.4 0.6-0.2 0.2-0.5 0.3-0.3 0.1-0.6 0.1-0.3 0-0.6-0.1-0.3-0.1-0.6-0.3-0.2-0.3-0.4-0.6-0.1-0.3-0.1-0.6v-9.8q0-0.3 0-0.5-0.1-0.3-0.2-0.5-0.1-0.2-0.2-0.4-0.2-0.2-0.3-0.4-0.2-0.2-0.4-0.3-0.2-0.2-0.5-0.3-0.2-0.1-0.4-0.1-0.3-0.1-0.5-0.1h-1.4q-0.5 0-0.9 0.2-0.5 0.2-0.8 0.6-0.4 0.3-0.6 0.8-0.2 0.4-0.2 0.9v9.9q0 0.3-0.1 0.6-0.1 0.3-0.4 0.6-0.2 0.2-0.5 0.3-0.3 0.1-0.7 0.1-0.3 0-0.6-0.1-0.3-0.1-0.6-0.3-0.2-0.3-0.3-0.6-0.1-0.3-0.1-0.6v-14q0-0.4 0.1-0.7 0.1-0.3 0.3-0.5 0.3-0.3 0.6-0.4 0.3-0.1 0.6-0.1 0.6 0 1 0.3 0.3 0.2 0.4 0.4 0.6-0.3 1.2-0.5 0.8-0.2 1.6-0.2h1.4q0.6 0 1.3 0.2 0.6 0.1 1.2 0.4 1 0.5 1.7 1.2 0.3-0.3 0.7-0.6 0.4-0.3 1-0.6 0.6-0.3 1.2-0.4 0.6-0.2 1.3-0.2zm17 0q0.5 0 0.9 0.1 0.4 0.1 0.8 0.2 0.4 0.2 0.8 0.4 0.4 0.3 0.7 0.6 0.6 0.7 0.9 1.5 0.4 0.8 0.4 1.7v11.2q0 0.3-0.1 0.6-0.2 0.3-0.4 0.6-0.2 0.2-0.5 0.3-0.3 0.1-0.7 0.1-0.9 0-1.4-0.6-0.6 0.2-1.2 0.4-0.7 0.2-1.6 0.2h-1.5q-0.6 0-1.2-0.1-0.6-0.1-1.1-0.3-0.6-0.3-1-0.6-0.5-0.3-0.9-0.7-0.4-0.4-0.7-0.8-0.3-0.5-0.6-1-0.2-0.6-0.3-1.2-0.1-0.5-0.1-1.1 0-0.6 0.1-1.2 0.1-0.6 0.3-1.1 0.2-0.5 0.5-1 0.4-0.5 0.8-0.9 0.4-0.4 0.9-0.7 0.4-0.3 1-0.5 0.5-0.3 1.1-0.4 0.6-0.1 1.2-0.1h3.4q0.2 0 0.3 0 0.1 0 0.1-0.1l0.1-0.1q0 0 0.1-0.1 0-0.2 0-0.4v-0.4q0-0.3-0.1-0.5 0-0.2-0.2-0.4-0.1-0.1-0.3-0.2-0.2-0.1-0.5-0.1h-6q-0.3 0-0.6-0.1-0.3-0.1-0.6-0.3-0.2-0.3-0.4-0.6-0.1-0.3-0.1-0.6 0-0.4 0.1-0.7 0.2-0.3 0.4-0.5 0.5-0.5 1.2-0.5zm0.4 13.3q0.3-0.4 0.5-0.8 0.2-0.5 0.2-1v-2.6l-0.1 0.1q-0.2 0-0.5 0h-3.5q-0.5 0-0.9 0.1-0.5 0.2-0.9 0.6-0.3 0.3-0.5 0.8-0.2 0.4-0.2 1 0 0.2 0.1 0.5 0 0.2 0.1 0.5 0.2 0.4 0.5 0.8 0.2 0.1 0.4 0.3 0.2 0.1 0.5 0.2 0.2 0.1 0.4 0.2 0.3 0 0.5 0h1.6q0.3 0 0.5 0 0.2-0.1 0.5-0.2 0.2-0.1 0.4-0.2 0.2-0.1 0.3-0.3zm14.7-13.3q0.8 0 1.2 0.5 0.2 0.2 0.4 0.5 0.1 0.3 0.1 0.7 0 0.3-0.1 0.6-0.2 0.3-0.4 0.6-0.2 0.2-0.5 0.3-0.3 0.1-0.7 0.1h-2.1q-0.3 0-0.5 0.1-0.3 0-0.5 0.1-0.2 0.1-0.4 0.2-0.2 0.2-0.4 0.3-0.4 0.5-0.6 0.9-0.1 0.5-0.1 0.9v9.9q0 0.3-0.2 0.6-0.1 0.4-0.4 0.6-0.2 0.2-0.5 0.3-0.3 0.1-0.6 0.1-0.3 0-0.6-0.1-0.3-0.1-0.6-0.3-0.2-0.2-0.4-0.5-0.1-0.4-0.1-0.7v-14q0-0.4 0.1-0.7 0.2-0.3 0.4-0.5 0.3-0.3 0.6-0.4 0.3-0.1 0.6-0.1 0.2 0 0.5 0.1 0.2 0.1 0.4 0.2 0.2 0.1 0.4 0.3 0 0.1 0.1 0.1 0.5-0.3 1.1-0.5 0.8-0.2 1.7-0.2zm11.8 14q0.3 0 0.6 0.2 0.3 0.1 0.5 0.3 0.3 0.2 0.4 0.5 0.2 0.3 0.2 0.7 0 0.3-0.2 0.6-0.1 0.4-0.4 0.6-0.2 0.2-0.5 0.3-0.3 0.1-0.6 0.1h-1.5q-0.7 0-1.4-0.1-0.7-0.1-1.3-0.4-0.7-0.3-1.2-0.6-0.6-0.4-1-0.9-0.5-0.4-0.9-1-0.4-0.6-0.6-1.2-0.3-0.6-0.4-1.3-0.2-0.7-0.2-1.4v-17.1q0-0.4 0.1-0.7 0.2-0.3 0.4-0.5 0.3-0.3 0.6-0.4 0.3-0.1 0.6-0.1 0.3 0 0.6 0.1 0.3 0.1 0.6 0.3 0.2 0.3 0.3 0.6 0.2 0.3 0.2 0.7v6.7h4q0.7 0 1.2 0.5 0.2 0.2 0.3 0.5 0.2 0.3 0.2 0.7 0 0.3-0.2 0.6-0.1 0.3-0.3 0.6-0.3 0.2-0.6 0.3-0.3 0.1-0.6 0.1h-4v7.1q0 0.4 0 0.7 0.1 0.4 0.3 0.7 0.1 0.3 0.3 0.6 0.2 0.3 0.4 0.6 0.3 0.2 0.6 0.4 0.2 0.2 0.6 0.4 0.6 0.2 1.4 0.2zm13.3 7q-0.3 0.6-0.7 1.1-0.5 0.4-1 0.6-0.6 0.2-1.2 0.2h-6.7q-0.1 0-0.2 0-0.1 0-0.2-0.1 0-0.1-0.1-0.2 0-0.1 0-0.2 0-0.3 0.1-0.4 0.1-0.1 0.2-0.1 0.1-0.1 0.2-0.1h6.7q0.4 0 0.7-0.1 0.2-0.1 0.3-0.2 0.2-0.1 0.3-0.2h0.1q0.3-0.3 0.4-0.7 0.1-0.2 0.1-0.4 0-0.1 0-0.3 0-0.4-0.2-0.8 0-0.2-0.1-0.3-0.1-0.2-0.2-0.3l-0.1-0.1-7.1-6.2q-0.4-0.4-0.7-1-0.2-0.6-0.2-1.2 0-0.7 0.2-1.2 0.3-0.5 0.7-1 0.5-0.5 1-0.7 0.5-0.2 1.2-0.2h5.8q0.1 0 0.2 0 0.1 0 0.2 0.1 0.1 0.1 0.1 0.2 0.1 0.1 0.1 0.2 0 0.2-0.1 0.3 0 0.1-0.1 0.2-0.1 0-0.2 0.1-0.1 0-0.2 0h-5.8q-0.4 0-0.7 0.2-0.4 0.1-0.7 0.4-0.5 0.6-0.5 1.4 0 0.4 0.1 0.7 0.1 0.2 0.2 0.4 0.1 0.2 0.2 0.3 0.3 0.3 7.1 6.2 1 0.9 1 2.3 0 0.6-0.2 1.1zm12.3-12.3q0.4 0.5 0.8 1 0.3 0.5 0.5 1 0.5 1.2 0.5 2.4v1.7q0 0.1-0.1 0.2 0 0.1-0.1 0.2-0.1 0.1-0.2 0.1-0.1 0-0.2 0h-10.7v1.5q0 1 0.4 1.9 0.2 0.5 0.5 0.9 0.2 0.4 0.6 0.7v0.1q0.3 0.3 0.7 0.6 0.4 0.2 0.9 0.4 0.5 0.2 1 0.3 0.5 0.1 1 0.1h3.7q0.1 0 0.2 0.1 0.1 0 0.2 0.1 0.1 0.1 0.1 0.2 0 0.1 0 0.2 0 0.1 0 0.2 0 0.1-0.1 0.2-0.1 0.1-0.2 0.1-0.1 0-0.2 0h-3.7q-0.7 0-1.3-0.1-0.6-0.1-1.1-0.3-0.6-0.3-1.1-0.6-0.5-0.3-0.9-0.8-0.9-0.8-1.4-1.9-0.2-0.6-0.3-1.2-0.1-0.6-0.1-1.2v-3.7q0-0.6 0.1-1.2 0.1-0.6 0.3-1.2 0.2-0.5 0.6-1 0.3-0.5 0.8-0.9v-0.1q0.4-0.4 0.9-0.7 0.5-0.4 1.1-0.6 0.6-0.2 1.2-0.4 0.6-0.1 1.2-0.1 1.3 0 2.4 0.5 1.1 0.4 2 1.3zm0.2 2.5q-0.2-0.5-0.4-0.9-0.3-0.4-0.7-0.7-0.7-0.8-1.6-1.2-0.9-0.4-1.9-0.4-0.5 0-1 0.1-0.5 0.1-1 0.3-0.4 0.2-0.8 0.5-0.4 0.3-0.8 0.7-0.7 0.7-1.1 1.6-0.4 0.9-0.4 1.9v1.1h10.1v-1.1q0-0.5-0.1-1-0.1-0.4-0.3-0.9zm13-3.7q0.3 0.2 0.6 0.4 0.5 0.5 0.7 1.2 0.3 0.6 0.3 1.4v11.9q0 0.2-0.1 0.4-0.1 0.1-0.2 0.1-0.1 0-0.3 0-0.1 0-0.2 0-0.1 0-0.2-0.1-0.1-0.1-0.1-0.2-0.1-0.1-0.1-0.2v-1.2l-0.5 0.4q-0.7 0.7-1.5 1-0.8 0.3-1.8 0.3h-1.7q-0.5 0-1 0v-0.1q-0.5 0-1-0.2-0.4-0.2-0.8-0.5-0.4-0.3-0.8-0.6-0.3-0.4-0.6-0.8-0.3-0.3-0.5-0.8-0.2-0.5-0.3-0.9-0.1-0.5-0.1-1.1 0-1 0.4-1.9 0.2-0.5 0.5-0.9 0.3-0.4 0.6-0.7 0.4-0.4 0.8-0.7 0.4-0.2 0.8-0.4 1-0.4 2-0.4h3.7q0.4 0 0.7-0.1 0.3-0.2 0.6-0.4 0.5-0.6 0.5-1.4v-0.5q0-0.5-0.1-1-0.2-0.4-0.6-0.8-0.1-0.1-0.3-0.2-0.2-0.2-0.4-0.3-0.2-0.1-0.4-0.1-0.3-0.1-0.5-0.1h-6.4q-0.2 0-0.3 0-0.1 0-0.2-0.1-0.1-0.1-0.1-0.2 0-0.1 0-0.2 0-0.1 0-0.2 0-0.1 0.1-0.2 0.1-0.1 0.2-0.1 0.1-0.1 0.3-0.1h6.4q0.7 0 1.3 0.3 0.4 0.1 0.6 0.3zm0.4 5.8l-0.4 0.4q-0.4 0.2-0.7 0.3-0.2 0-0.3 0-0.2 0.1-0.4 0.1h-3.7q-1.6 0-2.8 1.1-0.5 0.5-0.8 1.2-0.3 0.7-0.3 1.5 0 0.4 0.1 0.8 0.1 0.4 0.2 0.8 0.2 0.3 0.4 0.6 0.2 0.3 0.5 0.6 0.2 0.3 0.5 0.5 0.3 0.2 0.7 0.3 0.3 0.2 0.7 0.3 0.4 0 0.8 0h1.7q0.3 0 0.7 0 0.4-0.1 0.7-0.3 0.7-0.3 1.3-0.8 1.1-1.2 1.1-2.8zm5.2-15q0 0.1 0 0.2v23.8q0 0.2 0 0.3-0.1 0.1-0.1 0.1-0.1 0.1-0.2 0.2-0.1 0-0.2 0-0.2 0-0.3 0-0.1-0.1-0.2-0.2-0.1 0-0.1-0.1-0.1-0.1-0.1-0.3v-23.8q0-0.1 0.1-0.2 0-0.1 0.1-0.2 0.1-0.1 0.2-0.1 0.1-0.1 0.3-0.1 0.2 0 0.4 0.2 0 0.1 0.1 0.2z"/><path fill-rule="evenodd" class="a" d="m9.3 32.3q0.1 0 0.1 0 0.1 0 0.1 0.1 0 0.1-0.1 0.1 0 0.1-0.1 0.1h-1.1v4q0 0-0.1 0.1 0 0-0.1 0-0.1 0-0.1 0 0-0.1 0-0.1v-4h-1.2q-0.1 0-0.1-0.1-0.1 0-0.1-0.1 0-0.1 0.1-0.1 0 0 0.1 0zm2.3 1.5q0.2 0 0.4 0.1 0.2 0.1 0.4 0.2 0.1 0.2 0.2 0.4 0.1 0.2 0.1 0.4v1.7q0 0 0 0.1-0.1 0-0.2 0 0 0-0.1 0 0-0.1 0-0.1v-1.7q0-0.1-0.1-0.3 0-0.1-0.1-0.2-0.2-0.2-0.3-0.2-0.2-0.1-0.3-0.1-0.4 0-0.6 0.3-0.1 0.1-0.2 0.2-0.1 0.2-0.1 0.3v1.7q0 0 0 0.1 0 0-0.1 0-0.1 0-0.1 0-0.1-0.1-0.1-0.1v-4.2q0-0.1 0.1-0.1 0 0 0.1 0 0.1 0 0.1 0 0 0 0 0.1v1.8q0 0 0 0 0.1 0 0.1-0.1 0.3-0.3 0.8-0.3zm3.3 0q0.5 0 0.8 0.3 0.2 0.2 0.3 0.4 0.1 0.2 0.1 0.4v0.3q0 0.1-0.1 0.1 0 0.1-0.1 0.1h-1.8v0.2q0 0.2 0.1 0.3 0 0.2 0.2 0.3 0.1 0.1 0.2 0.1 0.2 0.1 0.3 0.1h0.7q0.1 0 0.1 0.1 0 0 0 0.1 0 0 0 0.1 0 0-0.1 0h-0.7q-0.2 0-0.4-0.1-0.2-0.1-0.4-0.2-0.1-0.2-0.2-0.4-0.1-0.2-0.1-0.4v-0.7q0-0.2 0.1-0.4 0.1-0.2 0.2-0.4 0.2-0.1 0.4-0.2 0.2-0.1 0.4-0.1zm0.9 1.1q0-0.1-0.1-0.3-0.1-0.1-0.2-0.2-0.2-0.3-0.6-0.3-0.1 0-0.3 0.1-0.1 0-0.2 0.2-0.2 0.1-0.2 0.2-0.1 0.2-0.1 0.3v0.2h1.7zm4.1-1.1q0.3 0 0.5 0 0.2 0.1 0.4 0.3 0.1 0.2 0.2 0.4 0.1 0.2 0.1 0.4v0.6q0 0.2-0.1 0.4-0.1 0.2-0.2 0.4-0.2 0.2-0.4 0.3-0.2 0-0.5 0h-0.7l-0.1 0.1q0 0 0-0.1-0.1 0-0.1 0 0 0 0-0.1v-4.2q0 0 0-0.1 0 0 0.1 0 0.1 0 0.1 0 0.1 0.1 0.1 0.1v1.5zm0.8 1.1q0-0.3-0.2-0.6-0.1-0.1-0.3-0.2-0.2 0-0.3 0h-0.7v2.3h0.7q0.3 0 0.6-0.3 0.1-0.1 0.2-0.3 0-0.1 0-0.3zm2.6-1.2q0.5 0 0.8 0.4 0.1 0.1 0.2 0.3 0.1 0.2 0.1 0.5v0.2q0 0.1 0 0.2-0.1 0-0.1 0h-1.8v0.2q0 0.2 0 0.3 0.1 0.2 0.2 0.3 0.1 0.1 0.3 0.2 0.1 0 0.3 0h0.6q0.1 0 0.1 0.1 0.1 0 0.1 0.1 0 0-0.1 0.1 0 0-0.1 0h-0.6q-0.2 0-0.5-0.1-0.2-0.1-0.3-0.2-0.2-0.2-0.3-0.4 0-0.2 0-0.4v-0.6q0-0.3 0-0.5 0.1-0.2 0.3-0.3 0.1-0.2 0.4-0.3 0.2-0.1 0.4-0.1zm0.8 1.2q0-0.2 0-0.4-0.1-0.1-0.2-0.2-0.3-0.3-0.6-0.3-0.2 0-0.3 0.1-0.2 0.1-0.3 0.2-0.1 0.1-0.2 0.2 0 0.2 0 0.4v0.1h1.6zm2.9 0.7q0.2 0.2 0.2 0.5 0 0.2-0.2 0.4-0.1 0.2-0.4 0.2h-1.1q-0.1 0-0.1-0.1-0.1 0-0.1-0.1 0-0.1 0.1-0.1 0 0 0.1 0h1.1q0.1 0 0.1-0.1 0.1 0 0.1 0 0.1-0.1 0.1-0.1 0-0.1 0-0.1 0-0.1 0-0.1 0-0.1-0.1-0.1l-1.2-1.1q-0.2-0.2-0.2-0.5 0-0.2 0.2-0.4 0.2-0.1 0.4-0.1h1q0.1 0 0.1 0 0.1 0 0.1 0.1 0 0.1-0.1 0.1 0 0.1-0.1 0.1h-1q-0.1 0-0.2 0-0.1 0.1-0.1 0.2 0 0.1 0 0.2 0.1 0 0.1 0.1 0 0 1.2 1zm2.8 0.8q0 0 0.1 0 0 0 0 0.1 0 0.1 0 0.1-0.1 0.1-0.1 0.1h-0.3q-0.3 0-0.5-0.1-0.2-0.1-0.3-0.3-0.2-0.1-0.3-0.3-0.1-0.2-0.1-0.5v-3.1q0-0.1 0.1-0.1 0-0.1 0.1-0.1 0.1 0 0.1 0.1 0 0 0 0.1v1.4h0.9q0.1 0 0.2 0 0 0.1 0 0.1 0 0.1 0 0.1-0.1 0.1-0.2 0.1h-0.9v1.4q0 0.2 0.1 0.4 0.1 0.1 0.2 0.2 0.1 0.1 0.3 0.2 0.1 0.1 0.3 0.1zm5.7-2.6q0 0 0.1 0 0 0.1 0 0.2l-0.7 2.5q0 0.2-0.1 0.2h-0.2q-0.1 0-0.2-0.2l-0.4-1.9-0.5 1.9q-0.1 0.2-0.2 0.2h-0.2q-0.1 0-0.1-0.2l-0.7-2.5q0-0.1 0-0.2 0.1 0 0.1 0 0.1 0 0.1 0 0.1 0 0.1 0.1l0.6 2.4 0.6-2.4q0.1-0.1 0.2-0.1 0 0 0.1 0 0 0 0 0.1l0.6 2.4 0.6-2.4q0-0.1 0-0.1 0.1 0 0.2 0zm2.5 0q0.1 0 0.2 0 0.1 0.1 0.2 0.2 0.2 0.2 0.2 0.4v2.1q0 0.1 0 0.1-0.1 0.1-0.1 0.1-0.1 0-0.1-0.1-0.1 0-0.1-0.1v-0.1q-0.2 0.3-0.6 0.3h-0.3q-0.2 0-0.4-0.1-0.1-0.1-0.2-0.2-0.2-0.1-0.2-0.3-0.1-0.2-0.1-0.4 0-0.2 0-0.3 0.1-0.2 0.2-0.3 0.2-0.2 0.3-0.2 0.2-0.1 0.4-0.1h0.6q0.2 0 0.2-0.1 0.1 0 0.1-0.2v-0.1q0-0.1-0.1-0.2 0-0.1-0.1-0.1-0.1 0-0.1 0h-1.2q0 0-0.1-0.1 0 0 0-0.1 0 0 0-0.1 0.1 0 0.1 0zm0.2 2.4q0.2-0.2 0.2-0.5v-0.7q-0.1 0.1-0.1 0.1-0.1 0-0.2 0h-0.6q-0.3 0-0.5 0.2-0.1 0.2-0.1 0.4 0 0.2 0 0.3 0.1 0.1 0.2 0.2 0 0.1 0.2 0.1 0.1 0.1 0.2 0.1h0.3q0.1 0 0.2-0.1 0.1 0 0.2-0.1zm3.9-2.4q0.1 0 0.1 0.1 0 0 0 0.1l-1.7 3.6q-0.1 0.1-0.1 0.1-0.1 0-0.1 0-0.1 0-0.1-0.1 0-0.1 0-0.1l0.6-1.3-1.1-2.2q0-0.1 0-0.1 0-0.1 0.1-0.1 0-0.1 0.1 0 0 0 0.1 0.1l1 1.9 0.9-1.9q0-0.1 0.1-0.1 0-0.1 0.1 0zm4.4-1.6q0.1 0 0.1 0.1 0.1 0 0.1 0.1 0 0-0.1 0.1 0 0-0.1 0h-0.6q-0.2 0-0.3 0.1-0.1 0-0.2 0.1-0.1 0.1-0.1 0.2-0.1 0.1-0.1 0.2v0.7h1.1q0.1 0 0.2 0 0 0.1 0 0.1 0 0.1 0 0.1-0.1 0.1-0.2 0.1h-1.1v2.4q0 0.1 0 0.1-0.1 0.1-0.1 0.1-0.1 0-0.1-0.1-0.1 0-0.1-0.1v-3.4q0-0.2 0.1-0.3 0.1-0.2 0.2-0.3 0.1-0.1 0.3-0.2 0.2-0.1 0.4-0.1zm2.7 1.9q0.2 0.2 0.3 0.4 0 0.2 0 0.4v0.6q0 0.3 0 0.5-0.1 0.2-0.3 0.3-0.1 0.2-0.4 0.3-0.2 0.1-0.4 0.1-0.2 0-0.4-0.1-0.2-0.1-0.4-0.3-0.1-0.1-0.2-0.3-0.1-0.2-0.1-0.5v-0.6q0-0.2 0.1-0.4 0.1-0.2 0.2-0.4 0.2-0.2 0.4-0.2 0.2-0.1 0.4-0.1 0.2 0 0.4 0.1 0.3 0 0.4 0.2zm-0.8 2.3q0.2 0 0.3-0.1 0.2-0.1 0.3-0.2 0.1-0.1 0.2-0.2 0.1-0.2 0.1-0.4v-0.6q0-0.2-0.1-0.3-0.1-0.2-0.2-0.3-0.2-0.2-0.6-0.2-0.3 0-0.6 0.2-0.1 0.1-0.2 0.3 0 0.1 0 0.3v0.6q0 0.2 0 0.4 0.1 0.1 0.2 0.2 0.1 0.1 0.3 0.2 0.1 0.1 0.3 0.1zm3.6-2.6q0.1 0 0.1 0 0.1 0.1 0.1 0.1 0 0.1-0.1 0.1 0 0.1-0.1 0.1h-0.4q-0.1 0-0.2 0-0.1 0.1-0.2 0.1-0.2 0.2-0.2 0.5v1.8q0 0.1 0 0.1-0.1 0.1-0.2 0.1 0 0-0.1-0.1 0 0 0-0.1v-2.6q0 0 0-0.1 0.1 0 0.1 0 0.1 0 0.2 0 0 0.1 0 0.1v0.1q0.3-0.2 0.6-0.2zm4.3 1.8q0.2 0.2 0.2 0.5 0 0.2-0.2 0.4-0.1 0.2-0.4 0.2h-1.1q-0.1 0-0.1-0.1-0.1 0-0.1-0.1 0-0.1 0.1-0.1 0 0 0.1 0h1.1q0.1 0 0.1-0.1 0.1 0 0.1 0 0.1-0.1 0.1-0.1 0-0.1 0-0.1 0-0.1 0-0.1 0-0.1-0.1-0.1l-1.2-1.1q-0.2-0.2-0.2-0.5 0-0.2 0.2-0.4 0.2-0.1 0.4-0.1h1q0.1 0 0.1 0 0.1 0 0.1 0.1 0 0.1-0.1 0.1 0 0.1-0.1 0.1h-1q-0.1 0-0.2 0-0.1 0.1-0.1 0.2 0 0.1 0 0.2 0.1 0 0.1 0.1 0 0 1.2 1zm2.3-1.8q0.5 0 0.8 0.3 0.2 0.2 0.3 0.4 0.1 0.2 0.1 0.4v0.3q0 0-0.1 0.1 0 0-0.1 0h-1.8v0.2q0 0.2 0.1 0.4 0 0.1 0.2 0.2 0.1 0.1 0.2 0.2 0.2 0.1 0.3 0.1h0.7q0.1 0 0.1 0 0 0 0 0.1 0 0.1 0 0.1 0 0.1-0.1 0.1h-0.7q-0.2 0-0.4-0.1-0.2-0.1-0.4-0.3-0.1-0.1-0.2-0.3-0.1-0.2-0.1-0.5v-0.6q0-0.2 0.1-0.4 0.1-0.2 0.2-0.4 0.2-0.2 0.4-0.2 0.2-0.1 0.4-0.1zm0.9 1.1q0-0.2-0.1-0.3-0.1-0.2-0.2-0.3-0.2-0.2-0.6-0.2-0.1 0-0.3 0-0.1 0.1-0.2 0.2-0.2 0.1-0.2 0.3-0.1 0.1-0.1 0.3v0.1h1.7zm2.8-1.1q0.1 0 0.2 0.1 0.2 0 0.3 0.1 0.2 0.2 0.2 0.5v2.1q0 0-0.1 0.1 0 0-0.1 0-0.1 0-0.1 0 0-0.1 0-0.1v-0.1q-0.3 0.2-0.7 0.2h-0.3q-0.2 0-0.3-0.1-0.2 0-0.3-0.2-0.1-0.1-0.2-0.3-0.1-0.1-0.1-0.3 0-0.2 0.1-0.4 0.1-0.1 0.2-0.3 0.1-0.1 0.3-0.2 0.2-0.1 0.3-0.1h0.7q0.1 0 0.2 0 0.1-0.1 0.1-0.2v-0.1q0-0.2-0.2-0.3 0 0-0.1-0.1 0 0-0.1 0h-1.1q-0.1 0-0.1 0-0.1-0.1-0.1-0.1 0-0.1 0.1-0.1 0-0.1 0.1-0.1zm0.2 2.4q0.1-0.2 0.1-0.4v-0.7q0 0-0.1 0-0.1 0.1-0.1 0.1h-0.7q-0.2 0-0.4 0.1-0.2 0.2-0.2 0.5 0 0.1 0.1 0.2 0 0.1 0.1 0.2 0.1 0.1 0.2 0.2 0.1 0 0.2 0h0.3q0.1 0 0.3 0 0.1-0.1 0.2-0.2zm1.8-4q0.1 0 0.1 0.1 0.1 0 0.1 0.1v4.1q0 0.1-0.1 0.2 0 0-0.1 0 0 0-0.1 0 0-0.1 0-0.2v-4.1q0-0.1 0-0.1 0.1-0.1 0.1-0.1z"/><path fill-rule="evenodd" class="b" d="m131.1 1.4c0.7 0 1.4 0.3 1.9 0.8 0.5 0.5 0.8 1.1 0.8 1.9 0 0.7-0.3 1.3-0.8 1.8-0.5 0.5-1.2 0.8-1.9 0.8-0.7 0-1.4-0.3-1.9-0.8-0.4-0.5-0.7-1.1-0.7-1.8 0-0.8 0.3-1.4 0.7-1.9 0.5-0.5 1.2-0.8 1.9-0.8zm1.7 1c-0.4-0.5-1-0.7-1.7-0.7-0.6 0-1.2 0.2-1.7 0.7-0.4 0.4-0.7 1-0.7 1.7 0 0.6 0.3 1.2 0.7 1.7 0.5 0.4 1.1 0.7 1.7 0.7 0.7 0 1.3-0.3 1.7-0.7 0.5-0.5 0.7-1.1 0.7-1.7 0-0.7-0.2-1.3-0.7-1.7z"/><path fill-rule="evenodd" class="b" d="m130.2 5.4v-2.4h1q0.4 0 0.5 0.1 0.2 0 0.3 0.2 0.1 0.1 0.1 0.4 0 0.2-0.1 0.4-0.2 0.2-0.5 0.2 0.2 0.1 0.3 0.2 0.1 0.1 0.2 0.4l0.3 0.5h-0.6l-0.3-0.6q-0.2-0.2-0.2-0.3-0.1-0.1-0.2-0.1-0.1 0-0.2 0h-0.1v1zm0.4-1.4h0.4q0.3 0 0.4 0 0.1-0.1 0.2-0.1 0-0.1 0-0.2 0-0.1-0.1-0.2 0-0.1-0.1-0.1-0.1 0-0.4 0h-0.4z"/></g></svg>